<svg width="202" height="202" viewBox="0 0 202 202" fill="none" xmlns="http://www.w3.org/2000/svg">
<path d="M0.7854 175.32C0.7854 189.597 12.3581 201.168 26.6337 201.168H175.404C189.681 201.168 201.252 189.596 201.252 175.32V26.5497C201.252 12.2725 189.679 0.701447 175.404 0.701447H26.6337C12.3565 0.701447 0.7854 12.2741 0.7854 26.5497L0.7854 175.32Z" fill="#563D7C"/>
<path d="M83.9145 89.3752V60.986H108.904C111.284 60.986 113.579 61.1843 115.789 61.581C117.999 61.9777 119.953 62.686 121.653 63.7059C123.353 64.7259 124.713 66.1425 125.733 67.9558C126.753 69.7691 127.263 72.0923 127.263 74.9256C127.263 80.0255 125.733 83.7087 122.673 85.9753C119.613 88.2419 115.704 89.3752 110.944 89.3752H83.9145ZM57.2253 40.2466V161.623H116.044C121.483 161.623 126.782 160.943 131.938 159.583C137.095 158.223 141.684 156.127 145.708 153.293C149.731 150.46 152.932 146.805 155.312 142.329C157.692 137.852 158.882 132.554 158.882 126.434C158.882 118.841 157.041 112.353 153.357 106.97C149.674 101.586 144.093 97.8183 136.613 95.665C142.053 93.0584 146.161 89.7152 148.938 85.6353C151.714 81.5554 153.102 76.4556 153.102 70.3357C153.102 64.6692 152.168 59.9094 150.298 56.0562C148.428 52.2029 145.793 49.1147 142.393 46.7914C138.993 44.4682 134.913 42.7966 130.153 41.7766C125.393 40.7566 120.123 40.2466 114.344 40.2466H57.2253ZM83.9145 140.884V107.565H112.984C118.764 107.565 123.41 108.896 126.923 111.56C130.436 114.223 132.193 118.671 132.193 124.904C132.193 128.077 131.655 130.684 130.578 132.724C129.501 134.764 128.057 136.379 126.243 137.569C124.43 138.759 122.333 139.609 119.953 140.119C117.574 140.629 115.08 140.884 112.474 140.884H83.9145Z" fill="white"/>
</svg>
