<svg width="108" height="122" viewBox="0 0 108 122" fill="none" xmlns="http://www.w3.org/2000/svg">
<path d="M10.6326 109.459L0.909935 0.366793H107.782L98.0461 109.442L54.2809 121.576L10.6326 109.459Z" fill="#8017A5"/>
<path d="M54.3459 112.303L89.713 102.498L98.0331 9.28865H54.3459V112.303Z" fill="#8017A5"/>
<path d="M54.3459 48.8115H72.0511L73.2718 35.1105H54.3459V21.7299H54.3935H87.8948L87.5745 25.3186L84.2888 62.1921H54.3459V48.8115Z" fill="white"/>
<path d="M54.4281 83.5596L54.3675 83.5769L39.4674 79.551L38.5151 68.8803H31.2728H25.0825L26.9569 89.8884L54.3632 97.4986L54.4281 97.4813V83.5596Z" fill="#EBEBEB"/>
<path d="M70.9125 61.625L69.3022 79.5423L54.3805 83.5682V97.49L81.8084 89.8884L82.0118 87.6287L84.3364 61.625H70.9125Z" fill="white"/>
<path d="M54.3935 21.7299V30.0414V35.0759V35.1105H22.1172H22.0739L21.8055 32.1019L21.1951 25.3186L20.8748 21.7299H54.3935Z" fill="#EBEBEB"/>
<path d="M54.3459 48.8115V57.123V62.1575V62.1921H39.6752H39.6319L39.3635 59.1835L38.7575 52.4002L38.4371 48.8115H54.3459Z" fill="#EBEBEB"/>
</svg>
