<svg width="122" height="122" viewBox="0 0 122 122" fill="none" xmlns="http://www.w3.org/2000/svg">
<path d="M121.544 18.9912C121.544 8.50266 113.041 0 102.552 0H18.9912C8.50266 0 0 8.50266 0 18.9912V102.552C0 113.041 8.50266 121.544 18.9912 121.544H102.552C113.041 121.544 121.544 113.041 121.544 102.552V18.9912Z" fill="black"/>
<path d="M60.7088 60.7718C60.7088 55.1781 65.2435 50.643 70.8371 50.643C76.4312 50.643 80.9659 55.1781 80.9659 60.7718C80.9659 66.3659 76.4312 70.9006 70.8371 70.9006C65.2435 70.9006 60.7088 66.3659 60.7088 60.7718Z" fill="#1ABCFE"/>
<path d="M40.4512 81.029C40.4512 75.4353 44.986 70.9006 50.58 70.9006H60.7088V81.029C60.7088 86.623 56.174 91.1577 50.58 91.1577C44.986 91.1577 40.4512 86.623 40.4512 81.029Z" fill="#0ACF83"/>
<path d="M60.7088 30.3859V50.643H70.8371C76.4312 50.643 80.9659 46.1083 80.9659 40.5147C80.9659 34.9207 76.4312 30.3859 70.8371 30.3859H60.7088Z" fill="#FF7262"/>
<path d="M40.4512 40.5147C40.4512 46.1083 44.986 50.643 50.58 50.643H60.7088V30.3859H50.58C44.986 30.3859 40.4512 34.9207 40.4512 40.5147Z" fill="#F24E1E"/>
<path d="M40.4512 60.7718C40.4512 66.3659 44.986 70.9006 50.58 70.9006H60.7088V50.643H50.58C44.986 50.643 40.4512 55.1781 40.4512 60.7718Z" fill="#A259FF"/>
</svg>
