<svg width="75" height="65" viewBox="0 0 75 65" fill="none" xmlns="http://www.w3.org/2000/svg">
<g clip-path="url(#clip0_751_861)">
<path d="M63.2692 203.38C62.4273 200.965 62.0233 199.593 62.259 198.551C62.5755 197.147 62.3802 195.883 61.6978 193.723C60.9974 191.504 63.543 177.189 63.0379 168.318C62.6765 161.983 61.5945 159.146 62.0345 153.777C62.6586 146.168 61.709 126.917 60.6023 117.451C59.8435 110.965 58.3866 108.144 56.5907 104.326C54.8577 100.641 53.5444 95.7698 53.4479 94.5009C52.7475 85.2662 57.1138 86.7304 57.5717 80.5365C58.3305 70.262 57.7356 61.5034 56.0003 58.6669C54.8509 56.7849 52.7722 55.6036 50.7451 55.1298C48.5855 54.6245 46.7986 53.7554 46.0938 52.7155C44.3136 50.0925 44.1677 47.8309 44.2979 44.6576C44.4281 41.4843 42.8275 40.1885 39.7161 40.1885C36.6047 40.1885 35.0042 41.4866 35.1344 44.6576C35.2646 47.8287 35.1186 50.0925 33.3385 52.7155C32.6336 53.7531 30.8489 54.6245 28.6871 55.1298C26.6623 55.6036 24.5835 56.7872 23.4319 58.6669C21.6966 61.5034 21.1018 70.2597 21.8605 80.5365C22.3162 86.7304 26.6847 85.2662 25.9843 94.5009C25.8878 95.7698 24.5746 100.641 22.8415 104.326C21.0456 108.144 19.5887 110.967 18.83 117.451C17.7232 126.917 16.7737 146.17 17.3977 153.777C17.8377 159.146 16.7557 161.983 16.3943 168.318C15.8892 177.189 18.4349 191.506 17.7345 193.723C17.052 195.883 16.8567 197.147 17.1733 198.551C17.409 199.593 17.0049 200.965 16.1631 203.38C15.2404 206.027 12.908 209.275 13.9182 211.296C15.0541 213.569 16.8365 214.216 22.8123 214.076C26.8531 213.712 26.6017 215.087 30.6693 213.825C33.7403 212.873 30.6132 207.93 28.9296 206.05C26.7431 203.606 27.0933 201.621 26.4737 199.847C26.0023 198.499 27.7353 197.32 26.5455 194.289C25.9551 192.786 28.1529 175.563 29.4706 166.441C30.043 162.484 30.3685 158.89 30.9859 154.426C31.4326 152.469 31.7918 150.132 32.6628 146.817C34.1646 141.099 35.4195 133.51 36.2343 123.966C36.9931 122.816 37.496 122.142 39.7139 122.084C41.9318 122.14 42.4346 122.814 43.1934 123.966C44.006 133.51 45.2632 141.099 46.765 146.817C47.636 150.129 47.9951 152.467 48.4419 154.426C49.0592 158.89 49.3847 162.484 49.9572 166.441C51.2771 175.563 53.4726 192.786 52.8822 194.289C51.6902 197.32 53.4232 198.499 52.9518 199.847C52.3322 201.623 52.6824 203.606 50.4959 206.05C48.8123 207.932 45.6852 212.873 48.7562 213.825C52.8238 215.087 52.5724 213.712 56.6132 214.076C62.589 214.216 64.3714 213.571 65.5073 211.296C66.5175 209.275 64.1851 206.027 63.2624 203.38H63.2692Z" fill="#AB9163"/>
<path d="M34.0029 51.9229C36.3017 53.2951 40.32 51.7298 44.4909 46.688C41.2157 47.5391 37.5453 47.2314 35.2062 46.4746C35.269 48.132 34.7707 50.2565 34.0029 51.9229Z" fill="#FFA886" fill-opacity="0.3"/>
<path d="M51.6879 214.93C50.9337 214.93 50.002 214.795 48.5968 214.359C47.7639 214.101 47.2139 213.562 47.0029 212.799C46.3654 210.49 49.0121 206.872 50.0851 205.673C51.5285 204.06 51.7822 202.683 52.0247 201.354C52.1324 200.768 52.2334 200.215 52.4287 199.658C52.5477 199.319 52.4489 198.969 52.2671 198.378C51.973 197.419 51.5689 196.106 52.3636 194.08C52.7991 192.849 51.1851 178.833 49.4049 166.517C49.1063 164.46 48.8796 162.522 48.6372 160.471C48.4172 158.596 48.1882 156.658 47.8919 154.525C47.7392 153.855 47.5955 153.134 47.4429 152.371C47.1376 150.848 46.7941 149.123 46.2262 146.958C44.6323 140.888 43.4291 133.216 42.6501 124.155C42.0103 123.184 41.6152 122.695 39.7183 122.645C37.8214 122.695 37.4263 123.184 36.7866 124.155C36.0076 133.216 34.8066 140.888 33.2105 146.958C32.6425 149.123 32.2968 150.85 31.9915 152.373C31.8389 153.134 31.6952 153.855 31.5426 154.525C31.2485 156.66 31.0195 158.598 30.7973 160.471C30.5548 162.522 30.3259 164.46 30.0295 166.517C28.2494 178.833 26.6353 192.849 27.0708 194.08C27.8655 196.103 27.4637 197.417 27.1673 198.376C26.9855 198.967 26.889 199.317 27.0057 199.656C27.201 200.215 27.302 200.768 27.4098 201.352C27.6545 202.681 27.9059 204.056 29.3493 205.67C30.4224 206.87 33.0691 210.488 32.4315 212.796C32.2205 213.56 31.6705 214.099 30.8377 214.357C28.3594 215.125 27.3559 214.959 26.1931 214.766C25.3984 214.633 24.4982 214.485 22.8639 214.631C22.8505 214.631 22.8393 214.631 22.8258 214.631C16.7243 214.775 14.6994 214.11 13.4153 211.541C12.5758 209.861 13.6129 207.665 14.6141 205.54C15.0047 204.711 15.3751 203.928 15.6333 203.189C16.4773 200.766 16.8208 199.539 16.6255 198.668C16.2596 197.044 16.5447 195.614 17.2002 193.548C17.4808 192.66 17.1149 188.962 16.7265 185.045C16.2035 179.772 15.5547 173.207 15.8353 168.278C15.9767 165.798 16.2304 163.829 16.4549 162.091C16.8028 159.38 17.1059 157.042 16.841 153.815C16.2237 146.303 17.1283 127.182 18.2732 117.379C19.0028 111.136 20.352 108.279 22.0603 104.661L22.3342 104.079C24.0851 100.358 25.34 95.5633 25.4253 94.4494C25.8137 89.3402 24.6486 87.721 23.4162 86.0074C22.4778 84.7049 21.5081 83.3551 21.3015 80.5681C20.5226 69.9949 21.1713 61.2812 22.9537 58.3661C24.0784 56.5268 26.1212 55.1456 28.5592 54.5752C30.6671 54.0811 32.2811 53.2659 32.8738 52.3923C34.4901 50.0095 34.7101 48.0062 34.5731 44.6735C34.5058 43.0206 34.8694 41.8033 35.6888 40.9499C36.5486 40.0538 37.8663 39.6182 39.7161 39.6182C41.5659 39.6182 42.8836 40.0538 43.7434 40.9499C44.5605 41.8033 44.9264 43.0206 44.8591 44.6735C44.7221 48.004 44.9421 50.0095 46.5584 52.3923C47.1511 53.2659 48.7651 54.0811 50.873 54.5752C53.311 55.1456 55.3538 56.5268 56.4784 58.3661C58.2609 61.2812 58.9096 69.9971 58.1307 80.5681C57.9241 83.3574 56.9544 84.7049 56.016 86.0074C54.7836 87.721 53.6185 89.3379 54.0069 94.4494C54.0922 95.5633 55.347 100.356 57.098 104.079L57.3719 104.661C59.0802 108.279 60.4294 111.136 61.159 117.379C62.3039 127.182 63.2085 146.303 62.5912 153.815C62.3263 157.042 62.6271 159.382 62.9773 162.091C63.2018 163.829 63.4555 165.798 63.5969 168.278C63.8775 173.207 63.2265 179.77 62.7057 185.045C62.3173 188.962 61.9514 192.66 62.232 193.548C62.8853 195.616 63.1704 197.044 62.8067 198.668C62.6114 199.539 62.9549 200.766 63.7989 203.189C64.0571 203.928 64.4252 204.711 64.8181 205.54C65.8193 207.665 66.8564 209.861 66.0168 211.541C64.7328 214.11 62.7124 214.775 56.6064 214.631C56.5929 214.631 56.5817 214.631 56.5682 214.631C54.934 214.483 54.0338 214.631 53.2391 214.766C52.7363 214.849 52.2626 214.928 51.6857 214.928L51.6879 214.93ZM39.7206 121.52C39.7206 121.52 39.7296 121.52 39.7341 121.52C42.1338 121.581 42.8207 122.367 43.667 123.654C43.7187 123.732 43.7501 123.822 43.7568 123.914C44.5291 132.974 45.7256 140.63 47.3104 146.671C47.8874 148.867 48.2353 150.612 48.5429 152.148C48.6955 152.912 48.8392 153.635 48.9918 154.295C48.9963 154.311 48.9986 154.327 49.0008 154.343C49.2994 156.499 49.5284 158.45 49.7506 160.337C49.9908 162.38 50.2198 164.312 50.5139 166.353C50.552 166.614 54.2426 192.362 53.4052 194.486C52.752 196.146 53.0618 197.154 53.3356 198.044C53.5377 198.702 53.7285 199.322 53.4838 200.024C53.3177 200.501 53.2234 201.013 53.1246 201.554C52.8665 202.966 52.5724 204.57 50.9157 206.418C49.47 208.035 47.6786 211.047 48.0782 212.495C48.1859 212.888 48.4553 213.138 48.9245 213.284C51.1469 213.973 51.9461 213.841 53.0528 213.659C53.9103 213.517 54.8824 213.356 56.6468 213.513C62.6271 213.652 64.0369 212.985 65.0089 211.042C65.6038 209.85 64.6857 207.905 63.7989 206.023C63.4128 205.203 63.0132 204.357 62.7349 203.562C61.9088 201.192 61.4284 199.665 61.7067 198.425C61.9828 197.201 61.8437 196.056 61.159 193.889C60.8245 192.833 61.0894 189.948 61.5855 184.937C62.1041 179.702 62.7483 173.187 62.4722 168.345C62.333 165.906 62.0816 163.957 61.8616 162.237C61.5047 159.463 61.1971 157.069 61.471 153.725C62.0839 146.271 61.1814 127.265 60.041 117.509C59.3339 111.45 58.0184 108.665 56.355 105.142L56.0811 104.558C54.3099 100.792 52.9877 95.8597 52.8867 94.537C52.4669 89.019 53.8071 87.155 55.1046 85.3539C55.9913 84.1232 56.8286 82.9599 57.0105 80.4872C57.7625 70.2936 57.1631 61.6405 55.5199 58.9523C54.5658 57.3914 52.7318 56.163 50.6171 55.6689C48.2061 55.1052 46.3878 54.1418 45.629 53.0233C43.676 50.1442 43.6132 47.6244 43.7366 44.6285C43.7905 43.299 43.5279 42.3491 42.933 41.7292C42.2954 41.0645 41.2426 40.7433 39.7161 40.7433C38.1896 40.7433 37.1368 41.0667 36.4992 41.7292C35.9043 42.3491 35.6417 43.2968 35.6956 44.6285C35.819 47.6244 35.7562 50.1442 33.8031 53.0233C33.0444 54.1418 31.226 55.1052 28.8151 55.6689C26.7004 56.163 24.8664 57.3914 23.9123 58.9523C22.2691 61.6382 21.6697 70.2913 22.4217 80.4872C22.6035 82.9599 23.4409 84.1232 24.3276 85.3539C25.6251 87.155 26.9653 89.0168 26.5455 94.537C26.4445 95.8597 25.1223 100.792 23.3511 104.558L23.0772 105.142C21.4138 108.668 20.0983 111.45 19.3912 117.509C18.2508 127.265 17.3506 146.271 17.9612 153.725C18.2351 157.069 17.9275 159.465 17.5706 162.237C17.3483 163.957 17.0992 165.906 16.96 168.345C16.6839 173.187 17.3304 179.702 17.8467 184.937C18.3428 189.948 18.6077 192.833 18.2732 193.889C17.5885 196.056 17.4493 197.201 17.7255 198.425C18.0038 199.667 17.5234 201.195 16.6973 203.562C16.4212 204.357 16.0216 205.203 15.6333 206.023C14.7465 207.905 13.8284 209.85 14.4233 211.042C15.3931 212.985 16.8051 213.652 22.7854 213.513C24.5521 213.356 25.5219 213.517 26.3794 213.659C27.4861 213.843 28.283 213.975 30.5077 213.284C30.9769 213.138 31.244 212.888 31.354 212.495C31.7558 211.045 29.9644 208.033 28.5165 206.418C26.862 204.57 26.568 202.966 26.3076 201.554C26.2088 201.013 26.1145 200.501 25.9484 200.024C25.7037 199.322 25.8945 198.702 26.0965 198.044C26.3704 197.154 26.6802 196.146 26.027 194.486C25.1919 192.362 28.8824 166.611 28.9183 166.353C29.2147 164.309 29.4414 162.378 29.6816 160.337C29.9038 158.45 30.135 156.499 30.4314 154.343C30.4336 154.327 30.4359 154.311 30.4403 154.295C30.5907 153.635 30.7344 152.914 30.8871 152.151C31.1946 150.612 31.5426 148.87 32.1195 146.671C33.7066 140.63 34.9009 132.974 35.6731 123.914C35.6821 123.82 35.7113 123.732 35.7629 123.654C36.6092 122.367 37.2984 121.581 39.6959 121.52C39.7004 121.52 39.7049 121.52 39.7094 121.52H39.7206Z" fill="black"/>
<path d="M29.7487 54.8604C25.9863 55.9159 21.9478 55.3365 20.0958 60.2503C19.1799 62.6802 19.4381 67.9914 17.5412 76.4761C16.953 79.1149 15.2357 89.2301 13.9651 92.5494C10.7258 100.998 9.7695 110.177 7.87708 114.446C6.44486 117.675 5.22141 121.132 5.60528 124.271C6.02732 127.725 9.25318 131.148 9.95582 133.003C10.8336 135.321 13.0986 133.762 13.1839 131.292C14.587 131.629 15.7745 131.572 15.8216 130.364C15.8778 128.961 14.4186 128.231 11.8931 127.867C11.5003 126.182 11.9515 124.563 12.4813 124.19C12.7911 126.829 14.6161 127.622 15.568 127.193C16.9418 126.575 15.9047 124.525 15.9608 122.421C16.0102 120.597 16.1292 119.811 15.7094 118.293C15.0561 115.939 14.8227 114.138 15.2155 112.09C15.66 109.775 22.5697 94.5863 24.8976 87.146" fill="#AB9163"/>
<path d="M11.2018 134.701C10.4408 134.701 9.78977 134.158 9.42835 133.201C9.20835 132.619 8.68081 131.817 8.07246 130.89C6.85574 129.037 5.33822 126.731 5.04863 124.341C4.63558 120.959 5.98923 117.328 7.36533 114.219C8.2049 112.326 8.86714 109.384 9.63712 105.977C10.5867 101.766 11.6642 96.9918 13.4444 92.3497C14.3625 89.9557 15.5389 83.8292 16.3178 79.7733C16.6097 78.2573 16.8386 77.0626 16.9958 76.3551C18.0351 71.7018 18.428 67.9536 18.7153 65.2182C18.96 62.8916 19.1351 61.2095 19.5729 60.0529C21.1263 55.9341 24.1771 55.3839 27.1268 54.8494C27.9439 54.7011 28.788 54.5484 29.6006 54.3216C29.8992 54.2385 30.209 54.4114 30.2921 54.7101C30.3751 55.0088 30.2023 55.3187 29.9037 55.4018C29.0417 55.6444 28.1707 55.8016 27.3288 55.9543C24.4442 56.4753 21.9524 56.9267 20.6257 60.4504C20.2418 61.4722 20.0712 63.0915 19.8355 65.3373C19.5459 68.0996 19.1486 71.886 18.0957 76.6022C17.9409 77.2916 17.7007 78.5403 17.4245 79.9866C16.6388 84.0807 15.4491 90.2656 14.495 92.754C12.744 97.3197 11.6777 102.052 10.7349 106.227C9.95365 109.692 9.27795 112.683 8.39347 114.677C7.07798 117.644 5.78495 121.096 6.16433 124.206C6.42473 126.335 7.8592 128.521 9.01305 130.275C9.65957 131.258 10.2163 132.107 10.4812 132.806C10.6271 133.192 10.8875 133.641 11.2961 133.571C11.8079 133.486 12.5756 132.619 12.6228 131.272C12.6295 131.103 12.7103 130.946 12.8428 130.845C12.9775 130.744 13.1503 130.706 13.3142 130.746C14.5511 131.043 14.9709 130.858 15.0944 130.764C15.137 130.733 15.247 130.65 15.2582 130.342C15.2717 129.992 15.3144 128.927 11.8101 128.422C11.5812 128.388 11.3971 128.22 11.3432 127.993C10.9414 126.275 11.314 124.321 12.1559 123.728C12.3175 123.614 12.5263 123.593 12.7081 123.674C12.8877 123.755 13.0134 123.926 13.0358 124.121C13.1705 125.262 13.6464 126.145 14.3446 126.542C14.7666 126.78 15.1325 126.769 15.3346 126.679C15.815 126.463 15.7813 125.891 15.5815 124.539C15.485 123.89 15.3772 123.155 15.3974 122.403C15.4064 122.107 15.4154 121.839 15.4244 121.59C15.4693 120.326 15.4962 119.629 15.1662 118.441C14.5466 116.214 14.2256 114.262 14.6634 111.98C14.8744 110.875 16.365 107.275 18.2529 102.716C20.4102 97.5061 23.095 91.0202 24.3611 86.9755C24.4532 86.6791 24.7697 86.5152 25.0638 86.6072C25.3601 86.6993 25.524 87.016 25.4319 87.3102C24.1501 91.4043 21.4541 97.9148 19.29 103.145C17.5009 107.466 15.9564 111.199 15.7656 112.191C15.4221 113.984 15.5568 115.652 16.2482 118.138C16.6254 119.495 16.5939 120.344 16.5468 121.628C16.5378 121.873 16.5288 122.138 16.5199 122.43C16.5019 123.084 16.5984 123.737 16.6927 124.37C16.8925 125.718 17.099 127.112 15.7948 127.699C15.2089 127.961 14.4591 127.894 13.7901 127.514C13.3838 127.283 12.7732 126.805 12.3512 125.871C12.2883 126.297 12.2771 126.809 12.3646 127.364C14.2346 127.672 16.4592 128.35 16.3784 130.38C16.3515 131.072 16.0327 131.454 15.7701 131.651C15.3054 132.002 14.6162 132.103 13.6734 131.954C13.4197 133.358 12.5307 134.497 11.4779 134.672C11.3859 134.688 11.2938 134.694 11.204 134.694L11.2018 134.701Z" fill="black"/>
<path d="M49.6899 54.8604C53.4523 55.9159 57.4908 55.3365 59.3428 60.2503C60.2587 62.6802 60.0006 67.9914 61.8975 76.4761C62.4856 79.1149 64.2029 89.2301 65.4735 92.5494C68.7129 100.998 69.6692 110.177 71.5616 114.446C72.9938 117.675 74.2173 121.132 73.8334 124.271C73.4114 127.725 70.1855 131.148 69.4828 133.003C68.6051 135.321 66.3401 133.762 66.2547 131.292C64.8517 131.629 63.6642 131.572 63.617 130.364C63.5609 128.961 65.0201 128.231 67.5455 127.867C67.9384 126.182 67.4872 124.563 66.9574 124.19C66.6476 126.829 64.8225 127.622 63.8707 127.193C62.4969 126.575 63.534 124.525 63.4779 122.421C63.4285 120.597 63.3095 119.811 63.7293 118.293C64.3825 115.939 64.616 114.138 64.2231 112.09C63.7787 109.775 56.869 94.5863 54.5411 87.146" fill="#AB9163"/>
<path d="M68.2346 134.701C68.1448 134.701 68.0527 134.694 67.9607 134.678C66.9079 134.503 66.0189 133.365 65.7652 131.961C64.8224 132.109 64.131 132.008 63.6685 131.658C63.4059 131.458 63.0871 131.076 63.0602 130.387C62.9794 128.359 65.204 127.68 67.074 127.371C67.1615 126.816 67.1481 126.304 67.0875 125.877C66.6632 126.811 66.0548 127.29 65.6485 127.521C64.9818 127.901 64.232 127.968 63.6438 127.705C62.3396 127.119 62.5461 125.724 62.7459 124.377C62.8402 123.744 62.9367 123.09 62.9188 122.437C62.912 122.145 62.9008 121.88 62.8918 121.635C62.8447 120.35 62.8155 119.501 63.1904 118.145C63.8818 115.656 64.0165 113.988 63.673 112.198C63.4822 111.205 61.9377 107.473 60.1486 103.152C57.9823 97.9191 55.2862 91.4086 54.0067 87.3145C53.9146 87.018 54.0785 86.7036 54.3748 86.6115C54.6711 86.5194 54.9854 86.6834 55.0775 86.9798C56.3436 91.0245 59.0284 97.5104 61.1857 102.723C63.0736 107.282 64.562 110.882 64.7752 111.987C65.213 114.269 64.8897 116.218 64.2724 118.448C63.9424 119.636 63.9671 120.332 64.0142 121.597C64.0232 121.846 64.0322 122.113 64.0412 122.41C64.0614 123.162 63.9514 123.896 63.8571 124.545C63.6573 125.897 63.6236 126.47 64.104 126.686C64.3061 126.775 64.672 126.789 65.094 126.549C65.7922 126.151 66.2703 125.271 66.4028 124.128C66.4252 123.93 66.5509 123.762 66.7305 123.681C66.9101 123.6 67.1211 123.62 67.2828 123.735C68.1246 124.327 68.4972 126.279 68.0954 127.999C68.0438 128.224 67.8574 128.395 67.6285 128.428C64.1242 128.934 64.1669 129.998 64.1804 130.348C64.1916 130.654 64.3038 130.737 64.3442 130.771C64.4677 130.865 64.8875 131.049 66.1244 130.753C66.2883 130.712 66.4611 130.75 66.5958 130.852C66.7305 130.953 66.8113 131.11 66.8158 131.278C66.8607 132.626 67.6285 133.493 68.1425 133.578C68.5533 133.645 68.8115 133.198 68.9574 132.812C69.2223 132.114 69.779 131.265 70.4256 130.281C71.5794 128.525 73.0139 126.342 73.2743 124.213C73.6537 121.103 72.3606 117.651 71.0451 114.684C70.1607 112.69 69.4872 109.698 68.7037 106.233C67.7609 102.058 66.6946 97.3285 64.9436 92.7605C63.9895 90.2744 62.802 84.0872 62.0141 79.9932C61.7357 78.5469 61.4955 77.2982 61.3429 76.6087C60.29 71.8925 59.8927 68.1084 59.6031 65.3438C59.3674 63.1002 59.1968 61.4788 58.8129 60.4592C57.4839 56.9378 54.9944 56.4864 52.1098 55.9631C51.2679 55.8104 50.3969 55.6532 49.5349 55.4106C49.2363 55.3275 49.0635 55.0176 49.1465 54.7189C49.2296 54.4202 49.5394 54.2473 49.838 54.3304C50.6484 54.5572 51.4947 54.7099 52.3118 54.8582C55.2615 55.3927 58.3123 55.9451 59.8657 60.0617C60.3012 61.2183 60.4786 62.8981 60.721 65.227C61.0084 67.9624 61.4012 71.7106 62.4406 76.3639C62.5977 77.0714 62.829 78.2661 63.1185 79.782C63.8975 83.8357 65.0761 89.9645 65.992 92.3585C67.7721 97.0006 68.8474 101.773 69.7992 105.986C70.567 109.393 71.2315 112.337 72.071 114.23C73.4471 117.336 74.8008 120.968 74.3877 124.352C74.0959 126.742 72.5806 129.048 71.3639 130.901C70.7533 131.828 70.228 132.63 70.008 133.212C69.6466 134.169 68.9956 134.712 68.2346 134.712V134.701Z" fill="black"/>
<path d="M55.2707 27.2415C55.1046 17.9888 49.9279 10.6226 39.7183 10.6226C29.5087 10.6226 24.3321 17.9888 24.166 27.2415C21.1129 28.0859 19.4877 31.4232 20.3789 35.241C21.0523 38.1269 23.5666 40.1391 26.8508 40.1571C27.2145 40.8286 27.6208 41.4327 28.0765 41.9402C30.8242 45.008 34.5574 46.7732 39.7206 46.7732C44.8837 46.7732 48.6169 45.008 51.3647 41.9402C51.8181 41.4327 52.2267 40.8286 52.5903 40.1571C55.8746 40.1391 58.3888 38.1269 59.0623 35.241C59.9512 31.4232 58.3282 28.0859 55.2752 27.2415H55.2707Z" fill="#AB9163"/>
<path d="M39.7182 47.3346C34.6269 47.3346 30.6827 45.6929 27.6566 42.3152C27.2548 41.8661 26.8732 41.3293 26.5162 40.7117C23.214 40.5635 20.5494 38.4502 19.831 35.3712C18.9174 31.4478 20.5 27.9331 23.6136 26.8282C23.7708 22.0985 25.1985 18.0493 27.7486 15.0961C30.5951 11.8038 34.7324 10.061 39.716 10.061C44.6996 10.061 48.8368 11.8015 51.6833 15.0961C54.2357 18.0493 55.6612 22.0985 55.8184 26.8282C58.932 27.9309 60.5168 31.4478 59.6009 35.3712C58.8826 38.4502 56.2179 40.5635 52.9158 40.7117C52.5588 41.3293 52.1772 41.8683 51.7754 42.3152C48.7493 45.6929 44.8028 47.3346 39.7137 47.3346H39.7182ZM39.7182 11.1839C32.611 11.1839 24.9381 15.406 24.7271 27.2526C24.7226 27.5019 24.5542 27.7175 24.3163 27.7826C21.5394 28.5507 20.1139 31.6342 20.9243 35.1129C21.5551 37.8191 23.883 39.5776 26.8529 39.5933C27.0572 39.5933 27.2458 39.7078 27.3423 39.8875C27.7015 40.55 28.0876 41.1137 28.4917 41.5629C31.2933 44.689 34.9636 46.2094 39.7182 46.2094C44.4728 46.2094 48.1432 44.689 50.9448 41.5629C51.3488 41.1115 51.735 40.5478 52.0941 39.8875C52.1929 39.7078 52.3792 39.5956 52.5835 39.5933C55.5535 39.5776 57.8791 37.8191 58.5122 35.1129C59.3226 31.6342 57.8971 28.5507 55.1202 27.7826C54.88 27.7153 54.7139 27.4997 54.7094 27.2526C54.5702 19.4844 50.5586 11.1839 39.7182 11.1839Z" fill="black"/>
<path d="M50.1905 38.2438C51.527 38.2438 52.6104 37.1599 52.6104 35.8228C52.6104 34.4858 51.527 33.4019 50.1905 33.4019C48.854 33.4019 47.7705 34.4858 47.7705 35.8228C47.7705 37.1599 48.854 38.2438 50.1905 38.2438Z" fill="#FFD1BF" fill-opacity="0.3"/>
<path d="M29.302 38.2438C30.6385 38.2438 31.722 37.1599 31.722 35.8228C31.722 34.4858 30.6385 33.4019 29.302 33.4019C27.9655 33.4019 26.8821 34.4858 26.8821 35.8228C26.8821 37.1599 27.9655 38.2438 29.302 38.2438Z" fill="#FFD1BF" fill-opacity="0.3"/>
<path d="M39.8168 36.9022C40.4132 36.9022 40.8966 36.4188 40.8966 35.8225C40.8966 35.2261 40.4132 34.7427 39.8168 34.7427C39.2205 34.7427 38.7371 35.2261 38.7371 35.8225C38.7371 36.4188 39.2205 36.9022 39.8168 36.9022Z" fill="#FFD1BF" fill-opacity="0.3"/>
<path d="M36.1445 39.4094C36.2007 39.9709 37.2939 41.7406 39.6802 41.6552C41.7006 41.5834 43.3842 40.447 43.4403 39.4364C42.4548 39.0861 42.0665 39.0007 39.7632 39.4094C37.2378 39.1849 36.9572 39.241 36.1445 39.4094Z" fill="#FFD1BF" fill-opacity="0.3"/>
<path d="M35.6686 40.1653C35.5227 40.1653 35.3813 40.0957 35.2937 39.9655C35.1568 39.7589 35.2129 39.4806 35.4172 39.3436C36.6564 38.5175 37.7563 38.6612 38.7261 38.7847C39.0831 38.8318 39.422 38.8745 39.7632 38.8745C40.1292 38.8745 40.5108 38.8341 40.8789 38.7937C41.9565 38.6769 43.0699 38.5579 44.1295 39.3571C44.327 39.5075 44.3675 39.7881 44.217 39.9857C44.0666 40.1832 43.786 40.2236 43.5885 40.0732C42.8118 39.4873 41.961 39.5794 40.9755 39.6849C40.5826 39.7275 40.1785 39.7702 39.7632 39.7702C39.3479 39.7702 38.982 39.7208 38.6116 39.6736C37.68 39.5524 36.8741 39.4491 35.9156 40.0889C35.8392 40.1406 35.7517 40.1653 35.6664 40.1653H35.6686Z" fill="#0D0D0D"/>
<path d="M39.8082 42.0203C38.7755 42.0203 37.7474 41.715 36.9976 41.0999C36.8539 40.981 36.8337 40.7699 36.9505 40.6263C37.0672 40.4826 37.2805 40.4624 37.4241 40.5791C38.6947 41.6207 41.0181 41.5961 42.2977 40.5253C42.4414 40.4063 42.6524 40.4242 42.7714 40.5679C42.8904 40.7116 42.8724 40.9226 42.7287 41.0416C41.9498 41.6926 40.8767 42.0203 39.8059 42.0203H39.8082Z" fill="#0D0D0D"/>
<path d="M27.2167 27.5325C26.9765 27.5325 26.7543 27.3776 26.6802 27.1374C26.5881 26.841 26.7543 26.5268 27.0506 26.4347C29.2079 25.768 31.1901 25.3258 34.4025 25.1753C34.7078 25.1619 34.9749 25.3998 34.9884 25.7096C35.0019 26.0194 34.7639 26.2821 34.4541 26.2955C31.3629 26.4392 29.4548 26.8657 27.3828 27.5055C27.3267 27.5235 27.2728 27.5302 27.2167 27.5302V27.5325Z" fill="#0D0D0D"/>
<path d="M31.327 36.0115C32.7465 36.0115 33.8973 34.8603 33.8973 33.4401C33.8973 32.0199 32.7465 30.8687 31.327 30.8687C29.9074 30.8687 28.7566 32.0199 28.7566 33.4401C28.7566 34.8603 29.9074 36.0115 31.327 36.0115Z" fill="#0D0D0D"/>
<path d="M52.2761 27.5326C52.2223 27.5326 52.1662 27.5237 52.11 27.508C50.0358 26.8682 48.1299 26.4416 45.0387 26.298C44.7289 26.2845 44.491 26.0219 44.5045 25.7121C44.5179 25.4023 44.7806 25.1643 45.0904 25.1778C48.3005 25.3282 50.2827 25.7704 52.4423 26.4372C52.7386 26.5292 52.9047 26.8435 52.8127 27.1398C52.7386 27.38 52.5163 27.5349 52.2761 27.5349V27.5326Z" fill="#0D0D0D"/>
<path d="M48.1658 36.0115C49.5854 36.0115 50.7362 34.8603 50.7362 33.4401C50.7362 32.0199 49.5854 30.8687 48.1658 30.8687C46.7462 30.8687 45.5955 32.0199 45.5955 33.4401C45.5955 34.8603 46.7462 36.0115 48.1658 36.0115Z" fill="#0D0D0D"/>
<path d="M39.9607 52.9396C37.0424 53.1081 34.9951 52.2389 34.4608 50.5815C33.1251 50.4962 32.4292 51.4529 31.7962 51.9694C27.8677 55.1697 22.8729 54.579 21.1062 56.8832C20.536 57.6243 19.2833 57.8085 18.4123 60.4765C17.6289 62.875 16.5311 66.7378 15.2965 72.0693C13.7857 78.5934 12.4253 84.6907 10.3757 89.3508C9.67984 90.9363 8.70781 91.3338 9.51596 91.9177C11.6486 93.4628 16.475 93.9659 19.6448 94.6688C19.1689 103.176 16.7085 117.084 17.7097 115.191C21.1331 117.522 27.5107 118.933 38.9146 119.53C44.2753 119.811 52.954 118.897 57.8365 117.071C59.2418 116.545 60.6695 115.611 61.0916 114.825C61.7089 114.29 60.5012 100.384 60.6134 95.5829C63.8954 95.3583 68.1337 94.4869 69.9857 93.2248C70.6098 92.7981 70.5739 92.0457 70.0059 91.1766C67.6106 87.5227 64.8158 77.594 64.093 72.0604C63.3342 66.2482 61.5383 59.5692 60.1083 58.2217C57.9914 56.2297 54.2448 55.2865 51.4387 53.5729C50.2803 52.8655 48.4912 52.4658 47.481 51.5113C46.8614 50.9251 45.8827 50.586 45.0386 50.6691C44.6368 51.3833 43.1956 52.7555 39.9607 52.9419V52.9396Z" fill="#44433B"/>
<path d="M40.9328 120.136C40.2077 120.136 39.5208 120.121 38.8855 120.087C28.0361 119.519 21.4789 118.221 17.7636 115.892C17.6155 115.946 17.4785 115.926 17.382 115.896C16.8365 115.724 16.8275 115.194 17.0341 113.179C17.1665 111.881 17.3932 110.105 17.6581 108.05C18.1722 104.023 18.8097 99.0507 19.0567 95.116C18.4102 94.9835 17.7075 94.8533 16.9712 94.7208C14.1247 94.1997 10.8989 93.6113 9.18604 92.3716C8.22973 91.6777 8.75727 90.9164 9.14114 90.3594C9.35889 90.045 9.62827 89.6542 9.86174 89.1242C11.7923 84.7314 13.1258 78.9642 14.5355 72.8601L14.7488 71.9416C16.172 65.7948 17.3192 62.0084 17.8759 60.2994C18.5561 58.2153 19.4742 57.5101 20.1432 56.9936C20.3654 56.8229 20.5428 56.6859 20.6573 56.5377C21.6225 55.2823 23.3084 54.8174 25.2615 54.2806C27.2437 53.7349 29.4885 53.1196 31.4371 51.5318C31.5426 51.4464 31.6593 51.3386 31.7805 51.2241C32.3664 50.6806 33.1679 49.935 34.4923 50.0181C34.7213 50.0338 34.9211 50.1865 34.9907 50.4066C35.4374 51.7923 37.2804 52.5289 39.9249 52.3762C42.7826 52.2123 44.1744 51.0489 44.547 50.3887C44.6368 50.2292 44.7985 50.1237 44.9803 50.1057C45.986 50.0046 47.1174 50.3954 47.8627 51.0983C48.4015 51.6059 49.2523 51.963 50.0761 52.3043C50.6463 52.5424 51.2345 52.7872 51.7261 53.0881C52.8193 53.7551 54.0922 54.3166 55.3246 54.8601C57.2058 55.6888 59.1498 56.5466 60.4878 57.8065C62.1131 59.3359 63.9112 66.3563 64.6453 71.982C65.3771 77.5965 68.2078 87.4129 70.4707 90.8647C71.6066 92.5985 70.6255 93.4631 70.2978 93.6854C68.3942 94.9835 64.3399 95.8257 61.1635 96.0997C61.1522 98.2085 61.3318 101.638 61.5047 104.964C61.9335 113.195 61.9133 114.661 61.5496 115.146C60.9749 116.139 59.3339 117.107 58.0297 117.594C53.5736 119.261 46.2172 120.136 40.9283 120.136H40.9328ZM18.0353 114.729C21.4564 117.051 28.1012 118.398 38.9461 118.966C44.0958 119.236 52.7093 118.387 57.6413 116.543C58.968 116.047 60.2678 115.175 60.5978 114.558C60.6068 114.54 60.618 114.522 60.6292 114.506C60.8425 113.745 60.591 108.917 60.389 105.025C60.2004 101.398 60.0051 97.647 60.0545 95.5697C60.0612 95.28 60.288 95.0419 60.5776 95.0217C63.7698 94.8038 67.9182 93.9572 69.6715 92.7602C70.0733 92.4862 69.8196 91.9135 69.5368 91.4823C67.1326 87.8127 64.2906 77.8952 63.5385 72.1303C62.7528 66.1093 60.9727 59.8008 59.7268 58.6263C58.5303 57.4989 56.7568 56.7173 54.8801 55.8886C53.614 55.3317 52.3075 54.7545 51.1492 54.0471C50.7294 53.7911 50.2063 53.5732 49.6518 53.3419C48.7359 52.9601 47.7864 52.5648 47.0994 51.9158C46.6572 51.4981 45.9703 51.2286 45.3529 51.2151C44.8591 51.8799 43.4111 53.3037 39.9967 53.4991C37.0402 53.6698 34.8739 52.7984 34.0882 51.15C33.4372 51.2263 32.9883 51.6441 32.5528 52.0483C32.4158 52.1741 32.2879 52.2931 32.1532 52.4031C30.0206 54.1392 27.6545 54.7904 25.5645 55.3654C23.8068 55.8482 22.287 56.2659 21.553 57.2226C21.3487 57.4899 21.0973 57.6808 20.8324 57.8851C20.2465 58.3343 19.5191 58.8935 18.9467 60.6475C18.3944 62.3386 17.2585 66.089 15.8443 72.1931L15.6333 73.1094C14.21 79.2674 12.8654 85.084 10.8921 89.5734C10.616 90.2022 10.2995 90.6603 10.0683 90.995C9.96725 91.1409 9.84602 91.3161 9.79664 91.4194C9.81011 91.4307 9.82582 91.4441 9.84827 91.4599C11.3546 92.5491 14.448 93.115 17.1755 93.6136C18.1026 93.782 18.9804 93.9437 19.7705 94.1189C20.0399 94.1773 20.224 94.4243 20.2105 94.6983C19.9838 98.7407 19.3126 103.98 18.7761 108.191C18.4326 110.879 18.0779 113.646 18.0398 114.729H18.0353Z" fill="black"/>
<path d="M57.4436 71.4228C57.4234 71.4228 57.4055 71.4228 57.3853 71.4183C57.2012 71.3868 57.08 71.2117 57.1114 71.0275C58.2675 64.4698 58.8512 62.3587 59.6548 60.3487C59.7244 60.1758 59.9197 60.0927 60.0926 60.1601C60.2654 60.2297 60.3485 60.4251 60.2811 60.598C59.6009 62.2958 59.024 64.0476 57.7736 71.142C57.7444 71.306 57.603 71.4205 57.4414 71.4205L57.4436 71.4228Z" fill="black"/>
<path d="M22.2826 70.0755C22.1187 70.0755 21.9773 69.9564 21.9504 69.7902C21.7192 68.3058 20.9559 63.1876 20.8526 59.6707C20.8482 59.4843 20.9941 59.3293 21.1804 59.3248C21.3622 59.3203 21.5216 59.4663 21.5261 59.6527C21.6294 63.1314 22.3859 68.2137 22.6171 69.6892C22.6463 69.8733 22.5206 70.0463 22.3365 70.0732C22.3185 70.0755 22.3006 70.0777 22.2849 70.0777L22.2826 70.0755Z" fill="black"/>
<path d="M39.8261 55.8637C36.8427 55.8637 34.2296 54.9227 32.9366 53.3664C32.7772 53.1755 32.8042 52.8925 32.995 52.7331C33.1858 52.5736 33.4686 52.6006 33.628 52.7915C34.8043 54.2086 37.3231 55.0395 40.201 54.9587C42.6748 54.8891 44.5425 54.112 45.9119 52.5804C46.078 52.3962 46.3609 52.3805 46.5449 52.5444C46.729 52.7106 46.7447 52.9936 46.5809 53.1777C45.0364 54.9025 42.9577 55.7761 40.2257 55.8525C40.091 55.857 39.9585 55.857 39.8261 55.857V55.8637Z" fill="black"/>
<g clip-path="url(#clip1_751_861)">
<path d="M33.2263 51.9675C33.2824 50.4516 33.7606 48.9918 34.434 48.235C33.6214 47.9834 32.7234 48.235 32.133 48.5718C30.6469 49.4207 29.4302 50.8693 28.8511 51.5475C27.1472 53.5418 19.059 52.895 15.4089 59.6593C12.0191 65.9453 8.95264 72.411 7.04676 77.8234C6.17351 80.305 6.86043 81.767 5.53148 84.3092C4.26762 86.7235 2.22031 89.8968 1.46155 91.7765C-0.121074 95.7044 1.01033 97.3394 0.705034 100.787C0.143819 107.102 1.79828 108.422 5.69984 110.724C5.05332 112.099 4.26089 117.668 6.28799 118.165C7.5496 118.475 13.0226 119.09 15.8848 118.079C16.1946 118.304 16.4348 118.769 16.5582 119.117C16.859 119.973 15.4919 121.531 16.2484 121.756C18.83 122.521 33.2577 123.555 33.8144 122.598C34.5148 121.39 34.1242 118.556 34.2073 117.489C30.7839 111.65 33.2824 79.4785 35.6395 68.3888C36.2187 65.6646 36.7126 61.5234 36.1154 60.3308C34.0681 56.2323 33.1118 55.051 33.224 51.9652L33.2263 51.9675Z" fill="#563E51"/>
<path d="M30.4494 49.8901C30.0566 50.1709 29.749 50.62 29.3001 51.1815C28.5413 53.3419 28.5705 54.5502 30.0858 57.4697C30.5347 57.7212 31.1229 58.5365 31.8255 58.7049C29.5807 56.0661 29.0756 52.8097 30.4517 49.8901H30.4494Z" fill="white"/>
<path d="M32.5528 48.4307C32.1599 48.7114 31.5157 49.0775 31.0667 49.6389C30.4202 52.5876 30.281 55.2826 32.8357 59.4373C33.453 59.635 33.8458 59.8595 34.7168 60.1672C33.0063 58.3706 30.5369 52.6438 32.5573 48.4329L32.5528 48.4307Z" fill="white"/>
<path d="M30.1104 123.559C29.0351 123.559 27.6792 123.523 25.9619 123.44C22.3185 123.26 17.8849 122.858 16.4549 122.436C15.438 122.135 15.5839 120.761 15.6894 119.757C15.7186 119.49 15.7455 119.236 15.7455 119.061C15.7455 118.973 15.7478 118.888 15.75 118.802C15.75 118.74 15.7545 118.663 15.7545 118.591C12.697 119.436 7.45528 119.025 6.15551 118.708C5.78062 118.616 5.25981 118.353 4.90737 117.617C4.10596 115.941 4.61778 112.656 5.14308 111.106C1.54008 108.97 -0.255803 107.654 0.143782 100.755C0.206638 99.6571 0.143782 98.7475 0.0809258 97.8672C-0.0492759 96.0458 -0.170498 94.3255 0.940706 91.5654C1.38519 90.4605 2.18885 89.1894 3.0374 87.8419C3.68392 86.8178 4.35065 85.7578 4.8939 84.7225C4.98145 84.5541 5.09145 84.3609 5.21267 84.1498C5.57634 83.512 6.12633 82.5508 6.09939 82.0635C5.83225 77.107 9.40382 70.1248 15.2517 59.1428C17.7794 54.3974 22.1209 53.2566 25.2907 52.4256C26.7251 52.0483 27.9621 51.7249 28.4245 51.1837L28.5794 51.0018C29.2214 50.2427 30.2967 48.9693 31.7424 48.1429C32.4585 47.7342 33.5158 47.5567 34.5036 47.6802C34.7101 47.7072 34.8852 47.8442 34.9593 48.0396C35.0334 48.235 34.993 48.4551 34.8538 48.61C34.2679 49.2703 33.8391 50.629 33.7875 51.9922C33.7044 54.2627 34.333 55.4485 35.5901 57.8111C35.9425 58.4758 36.3421 59.2259 36.7866 60.1152C37.3815 61.3055 36.9303 64.2498 36.2815 67.9778L36.1917 68.4898C34.8628 76.1637 33.7111 87.0199 33.2599 96.1424C32.7099 107.261 33.2083 114.751 34.663 117.235C34.7213 117.334 34.7483 117.448 34.7393 117.563C34.7168 117.843 34.7393 118.311 34.7617 118.805C34.8246 120.166 34.9054 121.861 34.3285 122.854C34.1736 123.119 33.9177 123.561 30.1104 123.561V123.559ZM16.8029 121.367C19.5932 122.173 31.9691 122.787 33.4036 122.203C33.7628 121.461 33.6932 119.961 33.6416 118.856C33.6191 118.391 33.6011 117.978 33.6124 117.65C31.693 114.086 31.7491 103.987 32.1397 96.084C32.5932 86.9189 33.7515 76.011 35.0872 68.2945L35.177 67.7802C35.5834 65.4558 36.2613 61.566 35.7831 60.6116C35.3454 59.7357 34.9503 58.9901 34.6001 58.3321C33.2914 55.8729 32.5708 54.5187 32.6673 51.945C32.7099 50.775 32.9816 49.6498 33.4081 48.7852C32.9838 48.8323 32.591 48.9469 32.2991 49.1131C31.024 49.843 30.0296 51.0198 29.4347 51.7227L29.2753 51.9113C28.5839 52.7198 27.2549 53.0702 25.5735 53.5104C22.6036 54.2896 18.5381 55.3586 16.2417 59.6706C10.4634 70.52 6.97264 77.4371 7.21957 82.0028C7.26447 82.818 6.66734 83.8646 6.18694 84.7045C6.0747 84.9021 5.97143 85.0841 5.88837 85.2413C5.32491 86.317 4.64472 87.3972 3.98698 88.4393C3.16536 89.7418 2.38864 90.9725 1.98232 91.9832C0.967645 94.5007 1.0754 96.0233 1.20111 97.7863C1.26621 98.7003 1.33356 99.6458 1.26621 100.818C0.891319 107.291 2.3168 108.133 6.12633 110.381C6.37551 110.529 6.47204 110.841 6.34857 111.104C5.85919 112.146 5.22165 115.667 5.92205 117.134C6.11959 117.545 6.34857 117.601 6.42265 117.619C7.67304 117.924 13.164 118.338 15.8668 117.383C16.0329 117.325 16.217 117.347 16.3651 117.446C16.9039 117.805 16.8859 118.403 16.8725 118.841C16.8702 118.915 16.868 118.989 16.868 119.065C16.868 119.299 16.8388 119.579 16.8074 119.878C16.767 120.262 16.6727 121.147 16.8051 121.369L16.8029 121.367Z" fill="black"/>
<path d="M36.2028 60.9234C36.1804 60.9234 36.1579 60.9234 36.1355 60.9167C28.8038 59.4434 27.8048 54.168 27.6724 52.5848C27.6567 52.3984 27.7936 52.2367 27.9799 52.2209C28.1685 52.2052 28.3279 52.3445 28.3436 52.5286C28.4648 53.9929 29.3964 58.8752 36.2679 60.2542C36.4498 60.2901 36.5687 60.4675 36.5328 60.6517C36.5014 60.8111 36.36 60.9212 36.2028 60.9212V60.9234Z" fill="black"/>
<path d="M45.9949 53.3146C46.0398 52.0233 45.8558 49.4406 45.0409 48.6838C46.2194 47.9539 48.2106 49.2183 49.8673 50.7904C51.3624 52.2097 62.0704 54.2983 66.2548 61.2333C69.8466 67.1847 71.9388 80.3226 73.5214 83.9159C75.6271 88.6882 78.3478 92.2254 79.3019 102.781C79.5488 105.505 78.8529 106.729 77.7305 108.62C76.2152 111.175 73.7189 111.034 73.802 111.791C73.9704 113.3 74.8391 117.266 73.6628 118.079C72.7873 118.683 67.0382 120.623 63.4487 120.071C63.0851 120.015 63.5363 121.425 62.663 121.755C60.7279 122.485 44.9533 123.804 44.9848 122.598C45.0409 120.464 44.9848 118.751 45.1239 117.347C47.9569 112.743 47.0882 83.5745 43.5525 65.7496C43.0744 63.3444 42.6277 62.0171 43.5525 60.2474C44.7086 58.0398 45.9096 55.7558 45.9949 53.3124V53.3146Z" fill="#563E51"/>
<path d="M48.9964 50.1147C49.3892 50.3955 49.9796 51.04 50.3994 51.0962C51.0729 52.4998 50.6509 55.2239 49.3892 57.582C48.9964 58.0312 48.6036 58.3411 47.957 58.9026C49.2186 56.7129 49.9774 52.7558 48.9942 50.117L48.9964 50.1147Z" fill="white"/>
<path d="M46.5562 48.6841C46.9491 48.9648 47.7617 49.3848 48.2107 49.9462C49.0525 51.9113 48.4913 56.6836 46.7785 59.4347C46.105 59.7447 45.7414 59.9108 44.8704 60.1646C46.5271 58.2287 48.6597 52.7265 46.554 48.6841H46.5562Z" fill="white"/>
<path d="M47.93 123.631C46.4461 123.631 45.3237 123.539 44.8792 123.308C44.5829 123.155 44.4774 122.942 44.4392 122.791C44.1294 121.556 44.3719 119.198 44.5313 117.637L44.5672 117.291C44.5784 117.188 44.6166 117.089 44.6794 117.008C47.2206 113.662 46.9108 87.2919 43.2562 67.1133C43.2046 66.8326 43.1507 66.5497 43.0968 66.2644C42.6591 63.9625 42.2056 61.5842 43.1148 59.8482L43.1776 59.7269C44.2978 57.5867 45.3574 55.5654 45.4359 53.2949C45.4921 51.6667 45.1935 49.5894 44.6592 49.093C44.5088 48.9516 44.446 48.7405 44.4998 48.5406C44.5537 48.3407 44.7109 48.1857 44.9106 48.1363C47.0186 47.6265 48.8728 49.0683 50.2557 50.3799C50.6014 50.7078 51.8136 51.1816 53.2189 51.7296C57.1227 53.2545 63.653 55.8057 66.7374 60.9396C69.218 65.0697 70.6996 70.9514 72.0083 76.1392C72.9399 79.8313 73.7436 83.0181 74.7246 84.9158C77.827 90.9121 79.5937 96.832 79.9776 102.514C80.1729 105.404 79.1964 107.053 78.0627 108.959L78.047 108.986C77.0548 110.659 75.7123 111.333 74.9087 111.737C74.7156 111.834 74.4844 111.951 74.3744 112.029C74.4058 112.276 74.4507 112.577 74.5046 112.919C74.9042 115.519 75.1421 117.738 73.9838 118.538C72.8838 119.297 68.9374 120.824 64.3825 120.404C64.066 120.375 63.8146 120.359 63.6328 120.354C63.6328 120.375 63.6328 120.393 63.6328 120.413C63.644 120.93 63.6642 121.792 62.6989 122.165C61.5001 122.629 52.7923 123.629 47.9322 123.629L47.93 123.631ZM45.4921 122.349C46.0376 122.515 48.2824 122.666 53.7599 122.216C58.0229 121.866 61.6775 121.358 62.2903 121.12C62.4834 121.046 62.5193 120.983 62.5058 120.442C62.5014 120.195 62.4946 119.917 62.5687 119.645C62.6091 119.497 62.7101 119.371 62.8448 119.297C62.9705 119.229 63.1164 119.214 63.2534 119.25C63.406 119.232 63.6956 119.218 64.4791 119.29C68.8161 119.69 72.4932 118.205 73.3418 117.619C74.0152 117.154 73.5775 114.309 73.3912 113.094C73.3283 112.687 73.2744 112.339 73.243 112.052C73.1667 111.36 73.7952 111.043 74.4013 110.74C75.1826 110.347 76.2534 109.81 77.0772 108.42L77.0929 108.393C78.1727 106.574 79.0235 105.137 78.8529 102.597C78.4803 97.0723 76.754 91.2984 73.7234 85.4413C72.6818 83.4291 71.8647 80.1817 70.9151 76.4222C69.6265 71.3085 68.1651 65.5121 65.7699 61.5258C62.883 56.7198 56.5749 54.2539 52.8058 52.7829C51.1065 52.1181 49.9818 51.6802 49.4789 51.2019C48.0916 49.8858 47.0006 49.239 45.9927 49.1672C46.6347 50.7235 46.5584 53.2118 46.5539 53.3421C46.4663 55.8686 45.299 58.0987 44.1676 60.2547L44.1047 60.3759C43.3774 61.7661 43.7927 63.949 44.1945 66.0623C44.2507 66.352 44.3045 66.6395 44.3562 66.9225C45.9904 75.9371 47.1241 87.5456 47.3912 97.9751C47.5192 102.932 47.5977 114.632 45.6649 117.559L45.6447 117.758C45.51 119.079 45.2878 121.246 45.4898 122.355L45.4921 122.349Z" fill="black"/>
<path d="M43.4133 61.1485C43.3213 61.1485 43.227 61.1103 43.1619 61.0362C43.0385 60.8969 43.0519 60.6836 43.1889 60.5601C43.3864 60.3849 43.7613 60.2659 44.3248 60.0884C46.4484 59.4237 50.864 58.038 51.3265 51.7183C51.3399 51.5319 51.5016 51.3927 51.6856 51.4062C51.872 51.4197 52.0111 51.5814 51.9977 51.7678C51.5038 58.5433 46.6145 60.0772 44.5268 60.7307C44.1519 60.8475 43.7254 60.9823 43.6356 61.0631C43.5705 61.1193 43.4919 61.1485 43.4111 61.1485H43.4133Z" fill="black"/>
</g>
<path d="M52.4534 13.2161C50.341 10.7637 46.6729 7.88232 39.7183 7.88232C32.7638 7.88232 29.0957 10.7637 26.9833 13.2161C24.8776 15.6595 22.6058 19.8974 23.3915 27.3916C23.6766 30.1045 24.1458 33.1566 24.936 35.1396C24.909 32.7815 25.0213 29.0198 25.8294 28.108C27.3582 26.3832 26.4737 23.6052 27.1516 21.4133C27.5153 20.2342 28.3437 19.9602 29.621 20.4588C32.7077 21.667 37.4735 20.9327 39.7183 22.7293C41.9632 20.9327 46.729 21.667 49.8157 20.4588C51.093 19.9602 51.9214 20.2342 52.2851 21.4133C52.963 23.6052 52.0785 26.3832 53.6073 28.108C54.4177 29.0198 54.5299 32.7815 54.5007 35.1396C55.2887 33.1566 55.7601 30.1045 56.0452 27.3916C56.8309 19.8951 54.5591 15.6573 52.4534 13.2161Z" fill="black"/>
<path d="M24.9338 35.7037C24.707 35.7037 24.4983 35.5667 24.413 35.3489C23.735 33.6443 23.203 30.9875 22.8326 27.4526C22.195 21.371 23.4477 16.4595 26.5568 12.8505C29.7625 9.12916 34.0681 7.32129 39.7184 7.32129C45.3687 7.32129 49.6743 9.12916 52.88 12.8505C55.9891 16.4595 57.2418 21.371 56.6042 27.4526C56.2338 30.9875 55.7018 33.6443 55.0238 35.3489C54.9228 35.6004 54.6579 35.7441 54.393 35.6925C54.1281 35.6408 53.9373 35.405 53.9396 35.1355C53.989 30.9067 53.5647 28.9102 53.1876 28.4812C52.1212 27.2797 52.0808 25.7054 52.0404 24.1828C52.0157 23.2485 51.9933 22.3682 51.7486 21.5799C51.6319 21.2026 51.4635 20.96 51.2502 20.8567C50.9135 20.695 50.395 20.8365 50.0201 20.9825C48.617 21.5305 46.9199 21.6967 45.2767 21.8561C43.1867 22.0582 41.2157 22.2514 40.0686 23.1677C39.8643 23.3316 39.5725 23.3316 39.3682 23.1677C38.2211 22.2491 36.2479 22.0582 34.1601 21.8561C32.5191 21.6967 30.8198 21.5327 29.4167 20.9825C29.0419 20.8365 28.5233 20.695 28.1866 20.8567C27.9733 20.96 27.8049 21.2026 27.6882 21.5799C27.4458 22.3659 27.4211 23.2485 27.3964 24.1828C27.356 25.7054 27.3133 27.282 26.2493 28.4812C25.8699 28.9079 25.4456 30.9067 25.4972 35.1355C25.4995 35.405 25.3109 35.6408 25.0438 35.6925C25.0078 35.6992 24.9697 35.7037 24.9338 35.7037ZM39.7184 8.44419C34.4138 8.44419 30.3865 10.124 27.4076 13.5826C24.5095 16.9468 23.3444 21.5731 23.9483 27.3336C24.1009 28.7979 24.2828 30.1049 24.4893 31.2436C24.6262 29.667 24.9001 28.3083 25.4097 27.7334C26.2021 26.8395 26.238 25.5325 26.2739 24.1491C26.2986 23.1811 26.3256 22.1795 26.6152 21.2453C26.8284 20.558 27.1921 20.0864 27.6972 19.8416C28.2674 19.5676 28.9633 19.5968 29.8231 19.9337C31.0824 20.4255 32.701 20.5827 34.2656 20.7355C36.3444 20.9376 38.3176 21.1285 39.7162 22.0358C41.1147 21.1285 43.0879 20.9376 45.1667 20.7355C46.7313 20.5827 48.3521 20.4255 49.6093 19.9337C50.469 19.5968 51.1672 19.5676 51.7351 19.8416C52.2402 20.0864 52.6061 20.558 52.8172 21.2453C53.1067 22.1795 53.1337 23.1811 53.1584 24.1491C53.1943 25.5325 53.2302 26.8395 54.0226 27.7334C54.5322 28.3083 54.8061 29.667 54.943 31.2436C55.1496 30.1027 55.3291 28.7979 55.484 27.3336C56.0879 21.5731 54.9251 16.9468 52.0247 13.5826C49.0458 10.124 45.0185 8.44419 39.7139 8.44419H39.7184Z" fill="black"/>
</g>
<defs>
<clipPath id="clip0_751_861">
<rect width="75" height="65" fill="white"/>
</clipPath>
<clipPath id="clip1_751_861">
<rect width="80" height="84" fill="white" transform="translate(0 47)"/>
</clipPath>
</defs>
</svg>
