<svg width="48" height="45" viewBox="0 0 48 45" fill="none" xmlns="http://www.w3.org/2000/svg">
<path d="M16.0548 36.2339C16.0548 36.42 15.8323 36.5689 15.5516 36.5689C15.2323 36.5968 15.0097 36.4479 15.0097 36.2339C15.0097 36.0478 15.2323 35.8989 15.5129 35.8989C15.8032 35.871 16.0548 36.0199 16.0548 36.2339ZM13.0452 35.8152C12.9774 36.0013 13.171 36.2153 13.4613 36.2712C13.7129 36.3642 14.0032 36.2712 14.0613 36.0851C14.1194 35.8989 13.9355 35.6849 13.6452 35.6012C13.3935 35.5361 13.1129 35.6291 13.0452 35.8152ZM17.3226 35.657C17.0419 35.7222 16.8484 35.899 16.8774 36.113C16.9065 36.2991 17.1581 36.42 17.4484 36.3549C17.729 36.2898 17.9226 36.113 17.8935 35.9269C17.8645 35.7501 17.6032 35.6291 17.3226 35.657ZM23.6903 0C10.2677 0 0 9.79824 0 22.7044C0 33.0237 6.75484 41.8542 16.4032 44.9621C17.6419 45.1761 18.0774 44.441 18.0774 43.8362C18.0774 43.2593 18.0484 40.0769 18.0484 38.1229C18.0484 38.1229 11.2742 39.5186 9.85161 35.35C9.85161 35.35 8.74839 32.6422 7.16129 31.9443C7.16129 31.9443 4.94516 30.4834 7.31613 30.5113C7.31613 30.5113 9.72581 30.6974 11.0516 32.912C13.171 36.5038 16.7226 35.4709 18.1065 34.8568C18.329 33.368 18.9581 32.3351 19.6548 31.721C14.2452 31.1441 8.7871 30.3903 8.7871 21.4389C8.7871 18.88 9.52258 17.5959 11.071 15.9582C10.8194 15.3534 9.99677 12.8596 11.3226 9.64005C13.3452 9.03522 18 12.1524 18 12.1524C19.9355 11.6313 22.0161 11.3615 24.0774 11.3615C26.1387 11.3615 28.2194 11.6313 30.1548 12.1524C30.1548 12.1524 34.8097 9.02592 36.8323 9.64005C38.1581 12.8689 37.3355 15.3534 37.0839 15.9582C38.6323 17.6052 39.5806 18.8893 39.5806 21.4389C39.5806 30.4183 33.8806 31.1348 28.471 31.721C29.3613 32.4561 30.1161 33.8518 30.1161 36.0385C30.1161 39.1743 30.0871 43.0545 30.0871 43.8176C30.0871 44.4224 30.5323 45.1575 31.7613 44.9435C41.4387 41.8542 48 33.0237 48 22.7044C48 9.79824 37.1129 0 23.6903 0ZM9.40645 32.0932C9.28064 32.1862 9.30968 32.4002 9.47419 32.577C9.62903 32.7259 9.85161 32.7911 9.97742 32.6701C10.1032 32.577 10.0742 32.363 9.90968 32.1862C9.75484 32.0373 9.53226 31.9722 9.40645 32.0932ZM8.36129 31.3395C8.29355 31.4604 8.39032 31.6093 8.58387 31.7024C8.73871 31.7954 8.93226 31.7675 9 31.6372C9.06774 31.5163 8.97097 31.3674 8.77742 31.2743C8.58387 31.2185 8.42903 31.2464 8.36129 31.3395ZM11.4968 34.6521C11.3419 34.773 11.4 35.0522 11.6226 35.229C11.8452 35.443 12.1258 35.4709 12.2516 35.322C12.3774 35.2011 12.3194 34.9219 12.1258 34.7451C11.9129 34.5311 11.6226 34.5032 11.4968 34.6521ZM10.3935 33.2842C10.2387 33.3773 10.2387 33.6192 10.3935 33.8332C10.5484 34.0472 10.8097 34.1403 10.9355 34.0472C11.0903 33.9263 11.0903 33.6843 10.9355 33.4703C10.8 33.2563 10.5484 33.1633 10.3935 33.2842Z" fill="white"/>
</svg>
