<svg width="108" height="122" viewBox="0 0 108 122" fill="none" xmlns="http://www.w3.org/2000/svg">
<path d="M10.6062 109.265L0.879913 0.181047H107.752L98.0125 109.247L54.2509 121.38L10.6062 109.265Z" fill="#8017A5"/>
<path d="M54.3158 112.109L89.6801 102.304L97.9995 9.10218H54.3158V112.109Z" fill="#8017A5"/>
<path d="M54.3158 49.5568H36.6121L35.3914 35.8569H54.3158V22.4774H54.2682H20.7696L21.0899 26.0701L24.3753 62.9363H54.3158V49.5568Z" fill="#EBEBEB"/>
<path d="M54.3158 84.302L54.2552 84.3194L39.3564 80.2981L38.4041 69.6283H31.1624H24.9726L26.8469 90.6304L54.2552 98.24L54.3158 98.2226V84.302Z" fill="#EBEBEB"/>
<path d="M54.2682 49.5568V62.9363H70.7427L69.1931 80.2895L54.2682 84.315V98.2356L81.6982 90.6304L81.8973 88.3709L85.0399 53.1495L85.3688 49.5568H81.7631H54.2682Z" fill="white"/>
<path d="M54.2682 22.4774V30.7882V35.8266V35.8569H86.5419H86.5852L86.8535 32.8529L87.4639 26.0701L87.7842 22.4774H54.2682Z" fill="white"/>
</svg>
