<svg width="201" height="201" viewBox="0 0 201 201" fill="none" xmlns="http://www.w3.org/2000/svg">
<path d="M0 72.5496C0 47.155 0 34.4576 4.94215 24.7581C9.28941 16.2261 16.2261 9.28941 24.7581 4.94215C34.4576 0 47.155 0 72.5496 0H127.917C153.312 0 166.009 0 175.708 4.94215C184.24 9.28941 191.177 16.2261 195.525 24.7581C200.467 34.4576 200.467 47.155 200.467 72.5496V127.917C200.467 153.312 200.467 166.009 195.525 175.708C191.177 184.24 184.24 191.177 175.708 195.525C166.009 200.467 153.312 200.467 127.917 200.467H72.5496C47.155 200.467 34.4576 200.467 24.7581 195.525C16.2261 191.177 9.28941 184.24 4.94215 175.708C0 166.009 0 153.312 0 127.917V72.5496Z" fill="#330000"/>
<path d="M97.1447 125.981H66.0802L59.7598 146.119C59.5844 146.867 58.8957 147.397 58.1461 147.36H42.4119C41.5145 147.36 41.2008 146.854 41.4705 145.842L68.3663 66.396C68.6355 65.5684 68.9047 64.6262 69.1732 63.5687C69.5254 61.728 69.7051 59.858 69.7116 57.9829C69.6342 57.4287 70.1211 56.9393 70.6523 57.0169H92.035C92.6614 57.0169 93.0194 57.2469 93.1103 57.7065L123.638 145.981C123.906 146.901 123.638 147.36 122.831 147.36H105.348C104.735 147.43 104.15 147.009 104.004 146.394L97.1447 125.981ZM70.9215 108.602H92.1696C88.6786 96.673 84.7387 84.9006 81.5455 72.879C78.1004 84.9213 74.3416 96.915 70.9215 108.602Z" fill="#FF9A00"/>
<path d="M141.791 71.6368C140.419 71.6934 139.052 71.4521 137.776 70.9295C136.502 70.4068 135.349 69.6135 134.394 68.6026C133.442 67.5473 132.702 66.3101 132.217 64.9606C131.732 63.6117 131.513 62.1777 131.57 60.7407C131.521 59.3181 131.765 57.9013 132.287 56.5821C132.808 55.2631 133.595 54.0716 134.596 53.0856C135.587 52.1099 136.757 51.3454 138.038 50.8364C139.319 50.3273 140.686 50.084 142.059 50.1202C145.288 50.1202 147.82 51.1087 149.658 53.0856C150.586 54.113 151.307 55.318 151.78 56.6315C152.252 57.9449 152.469 59.3418 152.414 60.7407C152.471 62.1827 152.244 63.6224 151.747 64.9727C151.251 66.323 150.494 67.5573 149.523 68.6026C148.509 69.6286 147.297 70.4276 145.967 70.9502C144.636 71.4721 143.214 71.7063 141.791 71.6368ZM132.511 145.98V80.0507C132.511 79.2231 132.869 78.8092 133.587 78.8092H150.129C150.845 78.8092 151.203 79.2231 151.204 80.0507V145.98C151.204 146.901 150.845 147.36 150.129 147.36H133.722C132.915 147.36 132.511 146.9 132.511 145.98Z" fill="#FF9A00"/>
</svg>
