<svg width="122" height="123" viewBox="0 0 122 123" fill="none" xmlns="http://www.w3.org/2000/svg">
<path d="M0 0.942731H121.544V122.486H0V0.942731Z" fill="#8017A5"/>
<path d="M31.9583 102.513L41.2596 96.8844C43.054 100.066 44.6864 102.758 48.6018 102.758C52.355 102.758 54.7212 101.29 54.7212 95.5791V56.743H66.1433V95.7406C66.1433 107.571 59.2087 112.956 49.0915 112.956C39.9543 112.956 34.6503 108.223 31.9581 102.512" fill="white"/>
<path d="M72.3474 101.29L81.6476 95.9048C84.0958 99.903 87.2778 102.84 92.907 102.84C97.6397 102.84 100.658 100.474 100.658 97.2101C100.658 93.2939 97.5575 91.9067 92.3357 89.6231L89.481 88.3984C81.2401 84.8908 75.7736 80.4851 75.7736 71.1839C75.7736 62.6172 82.3005 56.09 92.4993 56.09C99.7607 56.09 104.982 58.6194 108.735 65.2281L99.8417 70.9389C97.8835 67.4309 95.7629 66.0442 92.4995 66.0442C89.1544 66.0442 87.0329 68.1654 87.0329 70.9389C87.0329 74.3657 89.1544 75.753 94.0491 77.8744L96.9044 79.0982C106.613 83.2594 112.08 87.5015 112.08 97.0469C112.08 107.328 104.003 112.957 93.152 112.957C82.5457 112.957 75.692 107.898 72.3474 101.29Z" fill="white"/>
</svg>
