<svg width="421" height="77" viewBox="0 0 421 77" fill="none" xmlns="http://www.w3.org/2000/svg">
<g filter="url(#filter0_d_24_43)">
<path d="M6.45455 45.6364V42L35.7273 27.0909V32.9091L13.2727 43.7273L13.4545 43.3636V44.2727L13.2727 43.9091L35.7273 54.7273V60.5455L6.45455 45.6364ZM63.5511 13.2727L48.5511 69H43.642L58.642 13.2727H63.5511ZM100.727 45.6364L71.4545 60.5455V54.7273L93.9091 43.9091L93.7273 44.2727V43.3636L93.9091 43.7273L71.4545 32.9091V27.0909L100.727 42V45.6364Z" fill="url(#paint0_linear_24_43)" fill-opacity="0.41"/>
<path d="M125.294 41.388V37.836H130.718C131.646 37.836 132.43 37.692 133.07 37.404C133.742 37.116 134.254 36.716 134.606 36.204C134.958 35.66 135.134 35.004 135.134 34.236C135.134 33.084 134.75 32.22 133.982 31.644C133.214 31.068 132.126 30.78 130.718 30.78H127.358V51.804H131.486C132.542 51.804 133.486 51.676 134.318 51.42C135.15 51.132 135.806 50.684 136.286 50.076C136.798 49.436 137.054 48.572 137.054 47.484C137.054 46.78 136.91 46.172 136.622 45.66C136.334 45.148 135.934 44.732 135.422 44.412C134.91 44.092 134.318 43.868 133.646 43.74C133.006 43.58 132.286 43.5 131.486 43.5H125.294V39.084H132.398C134.03 39.084 135.614 39.26 137.15 39.612C138.686 39.964 140.078 40.54 141.326 41.34C142.574 42.108 143.566 43.1 144.302 44.316C145.07 45.5 145.454 46.94 145.454 48.636C145.454 50.876 144.91 52.684 143.822 54.06C142.766 55.436 141.262 56.46 139.31 57.132C137.358 57.772 135.054 58.092 132.398 58.092H119.246V24.492H131.582C133.918 24.492 135.966 24.812 137.726 25.452C139.518 26.06 140.926 27.004 141.95 28.284C143.006 29.532 143.534 31.116 143.534 33.036C143.534 34.796 143.006 36.3 141.95 37.548C140.926 38.796 139.518 39.756 137.726 40.428C135.966 41.068 133.918 41.388 131.582 41.388H125.294ZM157.985 49.452C157.985 50.732 158.225 51.74 158.705 52.476C159.185 53.18 160.017 53.532 161.201 53.532C162.001 53.532 162.673 53.372 163.217 53.052C163.793 52.732 164.241 52.268 164.561 51.66C164.881 51.052 165.041 50.316 165.041 49.452V36.012H172.289V58.092H165.041V54.78C164.369 55.964 163.489 56.908 162.401 57.612C161.313 58.284 159.953 58.62 158.321 58.62C155.569 58.62 153.553 57.884 152.273 56.412C151.025 54.908 150.401 52.844 150.401 50.22V36.012H157.985V49.452ZM177.962 20.652H184.922V58.092H177.962V20.652ZM192.938 36.012H201.626L192.17 45.132L202.586 58.092H194.042L183.482 45.132L192.938 36.012ZM211.329 51.18C211.329 51.756 211.473 52.252 211.761 52.668C212.049 53.052 212.433 53.356 212.913 53.58C213.393 53.772 213.921 53.868 214.497 53.868C215.329 53.868 216.097 53.692 216.801 53.34C217.505 52.988 218.081 52.46 218.529 51.756C218.977 51.052 219.201 50.188 219.201 49.164L219.969 52.044C219.969 53.452 219.585 54.652 218.817 55.644C218.049 56.604 217.057 57.34 215.841 57.852C214.625 58.332 213.313 58.572 211.905 58.572C210.497 58.572 209.185 58.316 207.969 57.804C206.785 57.26 205.825 56.46 205.089 55.404C204.385 54.348 204.033 53.068 204.033 51.564C204.033 49.452 204.785 47.788 206.289 46.572C207.793 45.324 209.921 44.7 212.673 44.7C214.017 44.7 215.217 44.828 216.273 45.084C217.361 45.34 218.289 45.66 219.057 46.044C219.825 46.428 220.401 46.828 220.785 47.244V50.46C220.017 49.884 219.121 49.452 218.097 49.164C217.105 48.844 216.049 48.684 214.929 48.684C214.065 48.684 213.377 48.78 212.865 48.972C212.353 49.164 211.969 49.452 211.713 49.836C211.457 50.188 211.329 50.636 211.329 51.18ZM208.113 42.78L205.665 37.932C206.913 37.324 208.417 36.748 210.177 36.204C211.937 35.66 213.857 35.388 215.937 35.388C217.889 35.388 219.633 35.676 221.169 36.252C222.705 36.796 223.921 37.596 224.817 38.652C225.713 39.708 226.161 41.004 226.161 42.54V58.092H219.201V44.172C219.201 43.628 219.105 43.164 218.913 42.78C218.753 42.364 218.497 42.012 218.145 41.724C217.793 41.436 217.345 41.228 216.801 41.1C216.289 40.972 215.697 40.908 215.025 40.908C214.033 40.908 213.057 41.02 212.097 41.244C211.169 41.468 210.353 41.74 209.649 42.06C208.945 42.348 208.433 42.588 208.113 42.78ZM228.996 49.836V43.548H239.172V49.836H228.996ZM242.949 24.492H251.301V58.092H242.949V24.492ZM254.949 58.092H248.325V50.892H254.661C255.941 50.892 257.173 50.732 258.357 50.412C259.573 50.092 260.629 49.564 261.525 48.828C262.453 48.092 263.189 47.116 263.733 45.9C264.277 44.652 264.549 43.116 264.549 41.292C264.549 39.468 264.277 37.948 263.733 36.732C263.189 35.484 262.453 34.492 261.525 33.756C260.629 33.02 259.573 32.492 258.357 32.172C257.173 31.852 255.941 31.692 254.661 31.692H248.325V24.492H254.949C258.629 24.492 261.813 25.18 264.501 26.556C267.189 27.932 269.269 29.868 270.741 32.364C272.213 34.86 272.949 37.836 272.949 41.292C272.949 44.716 272.213 47.692 270.741 50.22C269.269 52.716 267.189 54.652 264.501 56.028C261.813 57.404 258.629 58.092 254.949 58.092ZM288.664 58.572C286.104 58.572 283.88 58.108 281.992 57.18C280.136 56.22 278.696 54.876 277.672 53.148C276.648 51.42 276.136 49.388 276.136 47.052C276.136 44.684 276.632 42.636 277.624 40.908C278.616 39.18 280.04 37.852 281.896 36.924C283.784 35.996 286.008 35.532 288.568 35.532C291.128 35.532 293.288 35.98 295.048 36.876C296.808 37.74 298.152 39.004 299.08 40.668C300.008 42.332 300.472 44.348 300.472 46.716C300.472 47.068 300.472 47.42 300.472 47.772C300.472 48.092 300.44 48.364 300.376 48.588H280.216V44.556H293.848L292.12 46.764C292.28 46.54 292.408 46.268 292.504 45.948C292.632 45.596 292.696 45.308 292.696 45.084C292.696 44.124 292.52 43.292 292.168 42.588C291.816 41.884 291.32 41.34 290.68 40.956C290.04 40.572 289.288 40.38 288.424 40.38C287.336 40.38 286.424 40.62 285.688 41.1C284.952 41.58 284.392 42.316 284.008 43.308C283.656 44.268 283.464 45.484 283.432 46.956C283.432 48.3 283.624 49.452 284.008 50.412C284.392 51.372 284.968 52.108 285.736 52.62C286.504 53.1 287.448 53.34 288.568 53.34C289.848 53.34 290.936 53.1 291.832 52.62C292.76 52.14 293.496 51.42 294.04 50.46L300.52 52.044C299.368 54.22 297.8 55.852 295.816 56.94C293.864 58.028 291.48 58.572 288.664 58.572ZM301.268 36.012H308.996L314.084 48.252L319.124 36.012H326.852L314.084 60.684L301.268 36.012Z" fill="#F5F5F5"/>
</g>
<defs>
<filter id="filter0_d_24_43" x="2.45453" y="9.27271" width="328.398" height="63.7273" filterUnits="userSpaceOnUse" color-interpolation-filters="sRGB">
<feFlood flood-opacity="0" result="BackgroundImageFix"/>
<feColorMatrix in="SourceAlpha" type="matrix" values="0 0 0 0 0 0 0 0 0 0 0 0 0 0 0 0 0 0 127 0" result="hardAlpha"/>
<feOffset/>
<feGaussianBlur stdDeviation="2"/>
<feComposite in2="hardAlpha" operator="out"/>
<feColorMatrix type="matrix" values="0 0 0 0 0.295833 0 0 0 0 0.283507 0 0 0 0 0.283507 0 0 0 1 0"/>
<feBlend mode="normal" in2="BackgroundImageFix" result="effect1_dropShadow_24_43"/>
<feBlend mode="normal" in="SourceGraphic" in2="effect1_dropShadow_24_43" result="shape"/>
</filter>
<linearGradient id="paint0_linear_24_43" x1="70.0124" y1="0" x2="70.0124" y2="77" gradientUnits="userSpaceOnUse">
<stop offset="0.328125" stop-color="white"/>
<stop offset="1" stop-color="#8307FF" stop-opacity="0"/>
</linearGradient>
</defs>
</svg>
