<svg width="587" height="140" viewBox="0 0 587 140" fill="none" xmlns="http://www.w3.org/2000/svg">
<g filter="url(#filter0_d_24_43)">
<path d="M9.68182 78.4545V73L53.5909 50.6364V59.3636L19.9091 75.5909L20.1818 75.0455V76.4091L19.9091 75.8636L53.5909 92.0909V100.818L9.68182 78.4545ZM95.3267 29.9091L72.8267 113.5H65.4631L87.9631 29.9091H95.3267ZM151.091 78.4545L107.182 100.818V92.0909L140.864 75.8636L140.591 76.4091V75.0455L140.864 75.5909L107.182 59.3636V50.6364L151.091 73V78.4545Z" fill="url(#paint0_linear_24_43)" fill-opacity="0.41"/>
<path d="M179.75 69.6445V62.5405H190.598C192.454 62.5405 194.022 62.2525 195.302 61.6765C196.646 61.1005 197.67 60.3005 198.374 59.2765C199.078 58.1885 199.43 56.8765 199.43 55.3405C199.43 53.0365 198.662 51.3085 197.126 50.1565C195.59 49.0045 193.414 48.4285 190.598 48.4285H183.878V90.4765H192.134C194.246 90.4765 196.134 90.2205 197.798 89.7085C199.462 89.1325 200.774 88.2365 201.734 87.0205C202.758 85.7405 203.27 84.0125 203.27 81.8365C203.27 80.4285 202.982 79.2125 202.406 78.1885C201.83 77.1645 201.03 76.3325 200.006 75.6925C198.982 75.0525 197.798 74.6045 196.454 74.3485C195.174 74.0285 193.734 73.8685 192.134 73.8685H179.75V65.0365H193.958C197.222 65.0365 200.39 65.3885 203.462 66.0925C206.534 66.7965 209.318 67.9485 211.814 69.5485C214.31 71.0845 216.294 73.0685 217.766 75.5005C219.302 77.8685 220.07 80.7485 220.07 84.1405C220.07 88.6205 218.982 92.2365 216.806 94.9885C214.694 97.7405 211.686 99.7885 207.782 101.132C203.878 102.412 199.27 103.052 193.958 103.052H167.654V35.8525H192.326C196.998 35.8525 201.094 36.4925 204.614 37.7725C208.198 38.9885 211.014 40.8765 213.062 43.4365C215.174 45.9325 216.23 49.1005 216.23 52.9405C216.23 56.4605 215.174 59.4685 213.062 61.9645C211.014 64.4605 208.198 66.3805 204.614 67.7245C201.094 69.0045 196.998 69.6445 192.326 69.6445H179.75ZM245.132 85.7725C245.132 88.3325 245.612 90.3485 246.572 91.8205C247.532 93.2285 249.196 93.9325 251.564 93.9325C253.164 93.9325 254.508 93.6125 255.596 92.9725C256.748 92.3325 257.644 91.4045 258.284 90.1885C258.924 88.9725 259.244 87.5005 259.244 85.7725V58.8925H273.74V103.052H259.244V96.4285C257.9 98.7965 256.14 100.684 253.964 102.092C251.788 103.436 249.068 104.108 245.804 104.108C240.3 104.108 236.268 102.636 233.708 99.6925C231.212 96.6845 229.964 92.5565 229.964 87.3085V58.8925H245.132V85.7725ZM285.087 28.1725H299.007V103.052H285.087V28.1725ZM315.039 58.8925H332.415L313.503 77.1325L334.335 103.052H317.247L296.127 77.1325L315.039 58.8925ZM351.821 89.2285C351.821 90.3805 352.109 91.3725 352.685 92.2045C353.261 92.9725 354.029 93.5805 354.989 94.0285C355.949 94.4125 357.005 94.6045 358.157 94.6045C359.821 94.6045 361.357 94.2525 362.765 93.5485C364.173 92.8445 365.325 91.7885 366.221 90.3805C367.117 88.9725 367.565 87.2445 367.565 85.1965L369.101 90.9565C369.101 93.7725 368.333 96.1725 366.797 98.1565C365.261 100.076 363.277 101.548 360.845 102.572C358.413 103.532 355.789 104.012 352.973 104.012C350.157 104.012 347.533 103.5 345.101 102.476C342.733 101.388 340.813 99.7885 339.341 97.6765C337.933 95.5645 337.229 93.0045 337.229 89.9965C337.229 85.7725 338.733 82.4445 341.741 80.0125C344.749 77.5165 349.005 76.2685 354.509 76.2685C357.197 76.2685 359.597 76.5245 361.709 77.0365C363.885 77.5485 365.741 78.1885 367.277 78.9565C368.813 79.7245 369.965 80.5245 370.733 81.3565V87.7885C369.197 86.6365 367.405 85.7725 365.357 85.1965C363.373 84.5565 361.261 84.2365 359.021 84.2365C357.293 84.2365 355.917 84.4285 354.893 84.8125C353.869 85.1965 353.101 85.7725 352.589 86.5405C352.077 87.2445 351.821 88.1405 351.821 89.2285ZM345.389 72.4285L340.493 62.7325C342.989 61.5165 345.997 60.3645 349.517 59.2765C353.037 58.1885 356.877 57.6445 361.037 57.6445C364.941 57.6445 368.429 58.2205 371.501 59.3725C374.573 60.4605 377.005 62.0605 378.797 64.1725C380.589 66.2845 381.485 68.8765 381.485 71.9485V103.052H367.565V75.2125C367.565 74.1245 367.373 73.1965 366.989 72.4285C366.669 71.5965 366.157 70.8925 365.453 70.3165C364.749 69.7405 363.853 69.3245 362.765 69.0685C361.741 68.8125 360.557 68.6845 359.213 68.6845C357.229 68.6845 355.277 68.9085 353.357 69.3565C351.501 69.8045 349.869 70.3485 348.461 70.9885C347.053 71.5645 346.029 72.0445 345.389 72.4285ZM387.155 86.5405V73.9645H407.507V86.5405H387.155ZM415.06 35.8525H431.764V103.052H415.06V35.8525ZM439.06 103.052H425.812V88.6525H438.484C441.044 88.6525 443.508 88.3325 445.876 87.6925C448.308 87.0525 450.42 85.9965 452.212 84.5245C454.068 83.0525 455.54 81.1005 456.628 78.6685C457.716 76.1725 458.26 73.1005 458.26 69.4525C458.26 65.8045 457.716 62.7645 456.628 60.3325C455.54 57.8365 454.068 55.8525 452.212 54.3805C450.42 52.9085 448.308 51.8525 445.876 51.2125C443.508 50.5725 441.044 50.2525 438.484 50.2525H425.812V35.8525H439.06C446.42 35.8525 452.788 37.2285 458.164 39.9805C463.54 42.7325 467.7 46.6045 470.644 51.5965C473.588 56.5885 475.06 62.5405 475.06 69.4525C475.06 76.3005 473.588 82.2525 470.644 87.3085C467.7 92.3005 463.54 96.1725 458.164 98.9245C452.788 101.676 446.42 103.052 439.06 103.052ZM506.49 104.012C501.37 104.012 496.922 103.084 493.146 101.228C489.434 99.3085 486.554 96.6205 484.506 93.1645C482.458 89.7085 481.434 85.6445 481.434 80.9725C481.434 76.2365 482.426 72.1405 484.41 68.6845C486.394 65.2285 489.242 62.5725 492.954 60.7165C496.73 58.8605 501.178 57.9325 506.298 57.9325C511.418 57.9325 515.738 58.8285 519.258 60.6205C522.778 62.3485 525.466 64.8765 527.322 68.2045C529.178 71.5325 530.106 75.5645 530.106 80.3005C530.106 81.0045 530.106 81.7085 530.106 82.4125C530.106 83.0525 530.042 83.5965 529.914 84.0445H489.594V75.9805H516.858L513.402 80.3965C513.722 79.9485 513.978 79.4045 514.17 78.7645C514.426 78.0605 514.554 77.4845 514.554 77.0365C514.554 75.1165 514.202 73.4525 513.498 72.0445C512.794 70.6365 511.802 69.5485 510.522 68.7805C509.242 68.0125 507.738 67.6285 506.01 67.6285C503.834 67.6285 502.01 68.1085 500.538 69.0685C499.066 70.0285 497.946 71.5005 497.178 73.4845C496.474 75.4045 496.09 77.8365 496.026 80.7805C496.026 83.4685 496.41 85.7725 497.178 87.6925C497.946 89.6125 499.098 91.0845 500.634 92.1085C502.17 93.0685 504.058 93.5485 506.298 93.5485C508.858 93.5485 511.034 93.0685 512.826 92.1085C514.682 91.1485 516.154 89.7085 517.242 87.7885L530.202 90.9565C527.898 95.3085 524.762 98.5725 520.794 100.748C516.89 102.924 512.122 104.012 506.49 104.012ZM531.699 58.8925H547.155L557.331 83.3725L567.411 58.8925H582.867L557.331 108.236L531.699 58.8925Z" fill="#F5F5F5"/>
</g>
<defs>
<filter id="filter0_d_24_43" x="5.68182" y="24.1725" width="581.186" height="93.3275" filterUnits="userSpaceOnUse" color-interpolation-filters="sRGB">
<feFlood flood-opacity="0" result="BackgroundImageFix"/>
<feColorMatrix in="SourceAlpha" type="matrix" values="0 0 0 0 0 0 0 0 0 0 0 0 0 0 0 0 0 0 127 0" result="hardAlpha"/>
<feOffset/>
<feGaussianBlur stdDeviation="2"/>
<feComposite in2="hardAlpha" operator="out"/>
<feColorMatrix type="matrix" values="0 0 0 0 0.295833 0 0 0 0 0.283507 0 0 0 0 0.283507 0 0 0 1 0"/>
<feBlend mode="normal" in2="BackgroundImageFix" result="effect1_dropShadow_24_43"/>
<feBlend mode="normal" in="SourceGraphic" in2="effect1_dropShadow_24_43" result="shape"/>
</filter>
<linearGradient id="paint0_linear_24_43" x1="115.5" y1="10" x2="115.5" y2="129" gradientUnits="userSpaceOnUse">
<stop offset="0.328125" stop-color="white"/>
<stop offset="1" stop-color="#8307FF" stop-opacity="0"/>
</linearGradient>
</defs>
</svg>
