<svg width="122" height="121" viewBox="0 0 122 121" fill="none" xmlns="http://www.w3.org/2000/svg">
<path fill-rule="evenodd" clip-rule="evenodd" d="M79.3709 30.7951C76.795 22.7746 72.6631 15.676 66.8406 9.56765C65.3687 8.0225 63.7325 6.60694 62.7057 4.6849C62.0568 3.46817 61.4385 2.23463 60.8064 1.00998L60.4048 0L60.293 0.397663C60.2406 2.39587 59.1089 3.7501 57.7003 5.0153C56.1136 6.43779 54.6377 7.98293 53.1143 9.47565L48.4294 15.6374L44.6417 22.6035L42.1084 29.4439L42.0322 29.5497C40.6384 34.1288 39.9509 38.8374 39.6136 43.5916C39.486 45.3791 39.6324 47.1913 39.7323 48.9877C39.8757 51.5557 40.3218 54.0792 40.9905 56.5651C43.421 65.5926 48.3542 73.0799 55.0997 79.4426C56.352 80.6247 57.7062 81.6999 59.013 82.8237L59.5917 84.81L60.1298 87.8924L60.387 91.1103C60.384 91.7632 60.3573 92.419 60.3959 93.0699C60.4068 93.2371 60.6244 93.3914 60.7471 93.5517L61.8392 93.9355L62.9758 94.3777L62.7809 91.5179L62.772 88.7006L63.1647 84.4094L63.4496 83.4756L64.2657 82.0303C65.2727 81.2212 66.3519 80.4852 67.2689 79.584C68.9278 77.9548 70.5838 76.3028 72.0686 74.5173C73.9946 72.2015 75.6525 69.6741 76.984 66.9637C77.8733 65.1504 78.7121 63.3006 79.4056 61.4063C80.0169 59.7365 80.3958 57.9806 80.8775 56.2624L81.0041 55.8914C81.9983 51.254 82.1655 46.5691 81.8004 41.8545C81.5067 38.055 80.6134 34.3879 79.3709 30.7951ZM59.6856 80.5277C59.838 79.765 60.0269 79.0063 60.1644 78.2407C60.0269 79.0063 59.839 79.765 59.6856 80.5277ZM102.787 98.7876C101.969 97.2216 100.771 96.0326 99.1858 95.2521C97.8583 94.5993 96.4309 94.3124 94.9629 94.2708C93.8629 94.2392 92.7589 94.2956 91.6569 94.3094C90.6786 94.3213 89.6993 94.3381 88.721 94.3292C87.5705 94.3173 86.4201 94.2827 85.2696 94.2501C85.0787 94.2441 84.9432 94.2827 84.8541 94.4766C84.7147 94.7783 84.5495 95.0691 84.3783 95.3995L84.5702 95.4609C85.141 95.5618 85.7148 95.6478 86.2826 95.7616C87.0126 95.907 87.341 96.3264 87.3746 96.9417C87.4241 97.8181 87.4439 98.6966 87.4409 99.575C87.4261 103.051 87.4014 106.527 87.3756 110.002C87.3737 110.232 87.3697 110.471 87.3074 110.687C87.2352 110.936 87.157 111.259 86.9711 111.381C86.6496 111.595 86.2509 111.739 85.8681 111.802C85.3131 111.893 85.2201 111.917 85.047 112.463L84.9719 112.736C84.8888 113.034 84.9333 113.093 85.2439 113.096C87.0264 113.115 88.808 113.154 90.5896 113.148C92.2149 113.142 93.8401 113.241 95.4595 112.935C96.9898 112.647 98.4182 112.143 99.722 111.289C101.414 110.18 102.63 108.698 103.272 106.765C103.791 105.203 103.906 103.609 103.73 101.976C103.611 100.849 103.308 99.7877 102.787 98.7876ZM99.6636 108.344C98.71 110.119 97.2875 111.304 95.2547 111.617C93.9816 111.812 92.7065 111.755 91.4927 111.273C90.7241 110.969 90.4382 110.305 90.4145 109.521C90.3917 108.752 90.3828 107.982 90.3818 107.214C90.3779 104.509 90.3779 101.805 90.3818 99.1011C90.3838 98.2494 90.3987 97.3958 90.4125 96.5431C90.4224 95.9436 90.548 95.7428 91.1327 95.6943C93.7007 95.4787 96.1509 95.7556 98.1857 97.5629C99.444 98.6807 100.16 100.106 100.458 101.743C100.582 102.426 100.619 103.124 100.696 103.817C100.634 105.397 100.42 106.936 99.6636 108.344ZM121.218 105.415C120.711 104.183 119.752 103.41 118.546 102.916C118.134 102.746 117.71 102.607 117.266 102.443L117.421 102.344C117.901 102.036 118.435 101.788 118.848 101.409C119.853 100.488 120.271 99.3297 120.075 97.9537C119.889 96.6449 119.236 95.6844 118.07 95.0612C117.011 94.4974 115.87 94.2916 114.689 94.2926C112.645 94.2946 110.6 94.3252 108.557 94.3292C107.852 94.3302 107.148 94.2778 106.444 94.2679C106.307 94.2659 106.104 94.3005 106.046 94.3915C105.885 94.6388 105.778 94.9237 105.663 95.1987C105.597 95.359 105.662 95.447 105.845 95.4707C106.337 95.538 106.827 95.6221 107.32 95.6953C108.001 95.7972 108.33 96.1513 108.372 96.8368L108.381 97.2434C108.382 99.3752 108.388 101.507 108.38 103.639C108.369 105.766 108.345 107.896 108.319 110.025C108.316 110.293 108.28 110.562 108.241 110.828C108.183 111.23 107.968 111.507 107.557 111.594L106.392 111.823C106.255 111.851 106.056 111.847 106 111.932C105.786 112.252 105.614 112.601 105.637 113.022L105.757 113.055L109.668 113.151L110.452 113.148C111.805 113.132 113.16 113.159 114.512 113.09C115.975 113.016 117.349 112.582 118.619 111.835C119.971 111.039 121.012 109.989 121.382 108.411C121.619 107.403 121.62 106.389 121.218 105.415ZM111.283 96.3333C111.289 95.905 111.478 95.719 111.903 95.7082C112.951 95.6795 113.991 95.6854 115.002 96.0465C116.31 96.5134 117.114 97.6411 117.099 99.019C117.093 99.5483 117.1 100.073 116.906 100.581C116.521 101.582 115.783 102.11 114.736 102.213C114.19 102.269 113.639 102.275 113.153 102.3L111.528 102.229C111.313 102.221 111.219 102.126 111.22 101.905L111.283 96.3333ZM118.015 109.682C117.492 110.82 116.539 111.419 115.345 111.627C114.39 111.793 113.428 111.744 112.484 111.501C111.785 111.322 111.501 110.761 111.361 110.139C111.267 109.722 111.283 109.227 111.275 108.793C111.262 108.125 111.272 106.737 111.272 106.737H111.258C111.258 105.748 111.261 104.891 111.255 103.942C111.254 103.738 111.289 103.636 111.539 103.644C112.427 103.67 113.319 103.685 114.207 103.72C115.001 103.75 115.745 103.986 116.445 104.363C117.509 104.937 118.15 105.815 118.326 107.022C118.461 107.937 118.403 108.837 118.015 109.682ZM20.4921 110.748L20.5109 105.37C20.5139 104.561 20.411 103.767 20.1459 103C19.4149 100.886 17.3989 99.9232 15.2997 100.682C14.3452 101.027 13.4895 101.55 12.6724 102.144C12.1966 102.49 12.1966 102.49 11.8523 101.997C10.878 100.6 9.48615 100.122 7.86582 100.637C6.81825 100.97 5.90224 101.539 5.0347 102.199C4.95358 102.261 4.79036 102.329 4.74189 102.292C4.66078 102.232 4.60439 102.089 4.60637 101.981L4.66572 101.025C4.67067 100.824 4.63209 100.623 4.61231 100.412C4.22058 100.547 3.90799 100.683 3.58056 100.762C2.5686 101.009 1.54971 101.237 0.531811 101.469C0.285498 101.526 0.0253353 101.6 0.0015942 101.883C-0.0231361 102.161 0.24494 102.207 0.452674 102.29C0.889906 102.466 1.32417 102.653 1.75645 102.843C2.1195 103.004 2.25502 103.293 2.25304 103.683C2.24611 105.35 2.257 107.015 2.2471 108.682C2.24315 109.359 2.21149 110.036 2.18083 110.713C2.15313 111.314 1.94836 111.565 1.36671 111.717C1.05807 111.798 0.744492 111.852 0.433879 111.925C0.365624 111.941 0.248897 111.985 0.247908 112.018C0.235048 112.312 0.219221 112.613 0.268681 112.899C0.278573 112.95 0.589185 112.95 0.761308 112.97L0.877046 112.963C2.07597 112.945 3.27489 112.926 4.47481 112.914C5.11087 112.907 5.74594 112.913 6.43641 112.913L6.5106 111.953C6.11492 111.881 5.76177 111.826 5.41357 111.75C4.87049 111.631 4.63902 111.344 4.62517 110.796L4.61527 110.011C4.60934 107.976 4.60143 105.943 4.60143 103.908C4.60143 103.612 4.72409 103.378 4.98425 103.2C5.53524 102.829 6.1169 102.533 6.76087 102.368C8.11807 102.02 9.29523 102.503 9.81754 103.657C9.98273 104.021 10.1123 104.424 10.1489 104.82C10.3408 106.86 10.2577 108.901 10.142 110.941C10.1173 111.381 9.91052 111.603 9.47626 111.711L8.45539 111.926C8.37329 111.947 8.25359 111.892 8.24766 111.96C8.22491 112.242 8.23777 112.674 8.23777 112.674H8.48111L11.5892 112.776C12.4409 112.774 13.2936 112.877 14.1443 112.899C14.2967 112.902 14.4322 112.924 14.4411 112.748C14.455 112.469 14.4431 112.207 14.4302 111.928L14.268 111.9L13.3925 111.703C12.802 111.563 12.5982 111.339 12.5962 110.741C12.5893 109.268 12.6091 107.796 12.5962 106.324C12.5893 105.483 12.5567 104.641 12.5023 103.801C12.4874 103.577 12.522 103.431 12.7001 103.305C13.2244 102.931 13.7912 102.644 14.4134 102.479C16.3275 101.975 17.8944 103.024 17.9934 104.998C18.0903 106.901 18.0498 108.811 18.0349 110.718C18.03 111.382 17.8104 111.583 17.1565 111.761L16.931 111.819C16.2613 111.98 16.2672 111.98 16.3068 112.691C16.3196 112.914 16.3809 112.971 16.6184 112.965C17.9825 112.934 19.3466 112.926 20.7107 112.914C21.2686 112.91 21.8266 112.914 22.4339 112.914L22.5576 111.989C22.0244 111.847 21.5328 111.742 21.0579 111.587C20.6385 111.445 20.4901 111.191 20.4921 110.748ZM67.4688 102.596C68.0306 102.075 68.0346 101.386 67.8773 100.622C67.4322 101.087 66.9336 101.302 66.3648 101.343C65.6021 101.397 64.8533 101.331 64.143 101.027C62.222 100.202 60.3306 100.261 58.4452 101.166C56.8595 101.925 55.8841 103.109 55.7862 104.905C55.7239 106.055 55.9395 107.144 56.7071 108.059C57.1671 108.607 57.7577 108.963 58.4234 109.208C58.7103 109.314 58.732 109.45 58.4917 109.633C58.3156 109.769 58.1286 109.891 57.9407 110.009C57.5391 110.261 57.1345 110.511 56.7279 110.755C56.4895 110.899 56.4084 111.083 56.4865 111.365C56.715 112.194 57.3036 112.673 58.0396 113.022L58.3077 113.209L58.0732 113.444C57.3521 114.028 56.6023 114.58 55.9118 115.201C55.3321 115.722 55.1452 116.42 55.3203 117.191C55.6734 118.729 56.6933 119.681 58.1405 120.118C60.6699 120.884 63.045 120.444 65.2104 118.946C66.4944 118.056 67.4153 116.899 67.6953 115.306C68.0089 113.517 67.0147 111.964 65.2351 111.643C64.058 111.43 62.8531 111.368 61.6621 111.232C61.1062 111.169 60.5423 111.131 60.0012 111.003C59.5412 110.895 59.3127 110.52 59.3552 110.154C59.3978 109.794 59.7806 109.458 60.2188 109.424C61.1012 109.352 61.9658 109.215 62.7789 108.843C64.9334 107.858 65.9335 106.132 65.6832 103.81C65.6506 103.497 65.5794 103.189 65.5151 102.825C66.2045 102.94 66.9099 103.115 67.4688 102.596ZM60.9311 113.494C61.8075 113.52 62.8046 113.574 63.7681 113.856C64.6159 114.104 65.3133 114.537 65.519 115.483C65.7673 116.627 65.2173 117.765 64.1104 118.376C63.0737 118.948 61.948 118.995 60.8064 118.877C59.8291 118.777 58.9497 118.438 58.2454 117.716C57.3175 116.765 57.3125 115.45 58.2414 114.502C59.0713 113.655 59.5155 113.48 60.9311 113.494ZM63.1241 106.607C62.6137 108.24 61.1279 108.466 59.9636 107.944C58.9714 107.5 58.5391 106.625 58.3126 105.627C58.2246 105.243 58.2038 104.845 58.1524 104.452C58.1731 103.889 58.2661 103.349 58.5085 102.842C59.2514 101.282 61.0765 101.375 62.0865 102.082C62.5197 102.384 62.8214 102.796 63.0104 103.284C63.4298 104.376 63.4723 105.488 63.1241 106.607ZM53.8552 111.814C53.5041 111.757 53.1509 111.684 52.8096 111.58C52.2082 111.396 52.135 111.283 52.1281 110.647C52.1103 108.875 52.0984 107.102 52.0786 105.33C52.0687 104.533 51.9738 103.746 51.7294 102.985C51.0864 100.977 49.1169 99.8985 47.1464 100.491C46.0543 100.82 45.1165 101.433 44.2431 102.152L43.9245 102.396L43.9255 102.069C43.9463 101.692 43.9869 101.315 43.9839 100.938C43.9819 100.741 43.9067 100.543 43.8701 100.37C43.1253 100.595 42.4575 100.82 41.776 100.993C41.0924 101.165 40.395 101.281 39.7036 101.422C39.3603 101.491 39.1081 101.699 39.114 101.935C39.1229 102.269 39.3989 102.333 39.6403 102.433C40.0775 102.612 40.5137 102.793 40.946 102.985C41.2547 103.122 41.3803 103.378 41.3773 103.709C41.3556 106.013 41.3417 108.318 41.3081 110.622C41.2982 111.351 41.1142 111.542 40.398 111.703L40.0854 111.765C39.4226 111.879 39.4039 111.905 39.4494 112.605L39.4533 112.721C39.4454 112.99 39.5631 113.077 39.8401 113.074C41.6009 113.053 43.3627 113.043 45.1235 113.05C45.8782 113.053 45.9594 112.994 45.9435 112.218L45.9079 111.885C45.4766 111.813 45.0641 111.76 44.6605 111.671C44.2381 111.577 44.0868 111.404 44.0472 110.975C44.0106 110.582 43.9987 110.183 43.9948 109.788C43.975 107.976 43.9592 106.165 43.9503 104.355C43.9483 103.899 44.0324 103.475 44.4518 103.182C45.0879 102.737 45.7843 102.48 46.5539 102.428C48.1247 102.32 49.3187 103.251 49.4038 104.817C49.5086 106.749 49.477 108.688 49.5017 110.623C49.5037 110.768 49.478 110.913 49.4582 111.057C49.4206 111.34 49.2821 111.552 48.9952 111.626C48.7153 111.699 48.4314 111.764 48.1455 111.808C47.7192 111.871 47.7103 111.868 47.6776 112.298L47.6885 112.588C47.7389 113.089 47.7399 113.074 48.2464 113.069C49.9498 113.055 51.6523 113.046 53.3547 113.048C54.0669 113.05 54.1174 113.016 54.1233 112.282L54.1213 112.108C54.1322 111.92 54.0481 111.844 53.8552 111.814ZM77.6477 100.613C75.8622 100.176 74.1687 100.501 72.5602 101.333C70.9973 102.141 69.9527 103.39 69.555 105.116C69.1534 106.86 69.3453 108.561 70.1159 110.18C70.6174 111.232 71.389 112.045 72.4395 112.573C74.8987 113.812 77.9069 113.25 79.8359 111.593C81.3583 110.286 81.9172 108.546 81.9508 106.393C81.93 106.177 81.9093 105.762 81.8519 105.35C81.5284 103.006 79.9051 101.165 77.6477 100.613ZM79 109.669C78.5262 111.535 76.9128 112.364 75.0926 111.722C74.1637 111.396 73.4693 110.772 73.0024 109.928C71.9281 107.989 71.7214 105.928 72.3327 103.813C72.7403 102.404 73.8996 101.634 75.2786 101.73C76.5111 101.817 77.4588 102.408 78.1542 103.411C78.8872 104.47 79.1701 105.673 79.2453 106.938C79.2582 107.14 79.2473 107.343 79.2473 107.547L79.3343 107.557C79.2255 108.262 79.1741 108.981 79 109.669ZM32.7405 100.582C30.862 100.153 29.1022 100.577 27.472 101.532C26.0624 102.357 25.1513 103.589 24.8021 105.2C24.4747 106.704 24.6082 108.183 25.1414 109.624C25.4659 110.503 25.9575 111.275 26.6786 111.878C28.1971 113.145 29.9717 113.465 31.8601 113.112C33.4587 112.813 34.8634 112.102 35.8842 110.774C36.8398 109.531 37.2038 108.105 37.2414 106.559C37.1851 106.069 37.1712 105.571 37.0673 105.093C36.551 102.708 35.1562 101.133 32.7405 100.582ZM34.2728 109.663C33.8148 111.519 32.1757 112.368 30.3684 111.727C29.208 111.315 28.4523 110.465 27.9745 109.376C27.2089 107.626 27.0526 105.805 27.5482 103.959C27.928 102.548 29.0725 101.508 30.8244 101.757C31.8997 101.91 32.7385 102.459 33.3637 103.332C34.2085 104.51 34.4865 105.859 34.5251 107.277V107.567L34.5963 107.578C34.4924 108.274 34.441 108.982 34.2728 109.663Z" fill="#4FAA41"/>
</svg>
