<svg width="122" height="75" viewBox="0 0 122 75" fill="none" xmlns="http://www.w3.org/2000/svg">
<path d="M60.1124 74.4262C59.7003 74.4262 59.3157 74.3163 58.9586 74.124L55.3045 71.9536C54.7551 71.6514 55.0298 71.5415 55.1947 71.4865C55.9364 71.2393 56.0738 71.1843 56.8431 70.7448C56.9255 70.6898 57.0354 70.7173 57.1178 70.7722L59.9201 72.4481C60.03 72.5031 60.1674 72.5031 60.2498 72.4481L71.2118 66.1017C71.3217 66.0468 71.3767 65.9369 71.3767 65.7995V53.1341C71.3767 52.9968 71.3217 52.8869 71.2118 52.8319L60.2498 46.513C60.1399 46.458 60.0025 46.458 59.9201 46.513L48.9581 52.8319C48.8482 52.8869 48.7933 53.0242 48.7933 53.1341V65.7995C48.7933 65.9094 48.8482 66.0468 48.9581 66.1017L51.9528 67.8325C53.5737 68.6568 54.5902 67.6952 54.5902 66.7336V54.2331C54.5902 54.0682 54.7276 53.9034 54.9199 53.9034H56.3211C56.4859 53.9034 56.6508 54.0407 56.6508 54.2331V66.7336C56.6508 68.904 55.4694 70.1678 53.4089 70.1678C52.777 70.1678 52.2824 70.1678 50.8813 69.481L47.9965 67.8325C47.2822 67.4204 46.8427 66.6512 46.8427 65.827V53.1616C46.8427 52.3374 47.2822 51.5681 47.9965 51.156L58.9586 44.8096C59.6454 44.425 60.5795 44.425 61.2663 44.8096L72.2283 51.156C72.9427 51.5681 73.3822 52.3374 73.3822 53.1616V65.827C73.3822 66.6512 72.9427 67.4204 72.2283 67.8325L61.2663 74.179C60.9092 74.3438 60.4971 74.4262 60.1124 74.4262ZM63.4917 65.7171C58.6838 65.7171 57.6948 63.5192 57.6948 61.651C57.6948 61.4861 57.8321 61.3213 58.0244 61.3213H59.4531C59.6179 61.3213 59.7553 61.4312 59.7553 61.596C59.9751 63.0521 60.607 63.7664 63.5192 63.7664C65.827 63.7664 66.816 63.2444 66.816 62.0081C66.816 61.2938 66.5413 60.7718 62.9422 60.4146C59.9476 60.1124 58.0794 59.4531 58.0794 57.0629C58.0794 54.8375 59.9476 53.5188 63.0796 53.5188C66.5962 53.5188 68.3271 54.7276 68.5469 57.3651C68.5469 57.4475 68.5194 57.5299 68.4644 57.6123C68.4095 57.6673 68.3271 57.7222 68.2447 57.7222H66.816C66.6787 57.7222 66.5413 57.6123 66.5138 57.475C66.1841 55.9639 65.3324 55.4694 63.0796 55.4694C60.552 55.4694 60.2498 56.3485 60.2498 57.0079C60.2498 57.8046 60.607 58.0519 64.0137 58.4915C67.393 58.9311 68.9864 59.563 68.9864 61.9257C68.959 64.3434 66.9809 65.7171 63.4917 65.7171Z" fill="#539E43"/>
<path d="M26.1 24.8912C26.1 24.3966 25.8253 23.9296 25.3857 23.6823L13.7368 16.9787C13.5445 16.8688 13.3247 16.8139 13.105 16.7864H12.9951C12.7753 16.7864 12.5555 16.8688 12.3632 16.9787L0.714316 23.6823C0.274737 23.9296 0 24.3966 0 24.8912L0.0274737 42.9139C0.0274737 43.1612 0.164842 43.4084 0.384632 43.5183C0.604421 43.6557 0.879158 43.6557 1.07147 43.5183L7.99484 39.5621C8.43442 39.3148 8.70916 38.8478 8.70916 38.3533V29.9188C8.70916 29.4243 8.9839 28.9573 9.42348 28.71L12.3632 27.0066C12.583 26.8693 12.8302 26.8143 13.0775 26.8143C13.3247 26.8143 13.572 26.8693 13.7643 27.0066L16.704 28.71C17.1436 28.9573 17.4183 29.4243 17.4183 29.9188V38.3533C17.4183 38.8478 17.6931 39.3148 18.1326 39.5621L25.056 43.5183C25.2758 43.6557 25.5505 43.6557 25.7703 43.5183C25.9901 43.4084 26.1275 43.1612 26.1275 42.9139L26.1 24.8912Z" fill="#333333"/>
<path d="M82.0914 0.0824211C81.8716 -0.0274737 81.5969 -0.0274737 81.4045 0.0824211C81.1848 0.21979 81.0474 0.439579 81.0474 0.686842V18.5447C81.0474 18.7096 80.965 18.8744 80.8001 18.9843C80.6353 19.0667 80.4704 19.0667 80.3056 18.9843L77.3934 17.3084C76.9538 17.0612 76.4318 17.0612 75.9922 17.3084L64.3434 24.0395C63.9038 24.2867 63.6291 24.7538 63.6291 25.2483V38.683C63.6291 39.1775 63.9038 39.6445 64.3434 39.8918L75.9922 46.6229C76.4318 46.8701 76.9538 46.8701 77.3934 46.6229L89.0422 39.8918C89.4818 39.6445 89.7566 39.1775 89.7566 38.683V5.19253C89.7566 4.67053 89.4818 4.20347 89.0422 3.95621L82.0914 0.0824211ZM81.0199 34.2597C81.0199 34.3971 80.965 34.507 80.8551 34.5619L76.8714 36.8697C76.7615 36.9246 76.6241 36.9246 76.5142 36.8697L72.5306 34.5619C72.4207 34.507 72.3657 34.3696 72.3657 34.2597V29.6441C72.3657 29.5067 72.4207 29.3968 72.5306 29.3419L76.5142 27.0341C76.6241 26.9792 76.7615 26.9792 76.8714 27.0341L80.8551 29.3419C80.965 29.3968 81.0199 29.5342 81.0199 29.6441V34.2597Z" fill="#333333"/>
<path d="M120.857 29.5342C121.296 29.287 121.544 28.8199 121.544 28.3254V25.056C121.544 24.5615 121.269 24.0944 120.857 23.8472L109.29 17.1436C108.851 16.8963 108.329 16.8963 107.889 17.1436L96.2403 23.8746C95.8008 24.1219 95.526 24.589 95.526 25.0835V38.5181C95.526 39.0126 95.8008 39.4797 96.2403 39.727L107.807 46.3206C108.246 46.5679 108.768 46.5679 109.18 46.3206L116.186 42.4194C116.406 42.3095 116.543 42.0622 116.543 41.815C116.543 41.5677 116.406 41.3204 116.186 41.2105L104.482 34.4795C104.263 34.3421 104.125 34.1223 104.125 33.8751V29.6716C104.125 29.4243 104.263 29.1771 104.482 29.0672L108.136 26.9792C108.356 26.8418 108.631 26.8418 108.851 26.9792L112.505 29.0672C112.725 29.2045 112.862 29.4243 112.862 29.6716V32.9684C112.862 33.2157 112.999 33.463 113.219 33.5729C113.439 33.7102 113.714 33.7102 113.933 33.5729L120.857 29.5342Z" fill="#333333"/>
<path d="M108.411 28.9023C108.494 28.8474 108.604 28.8474 108.686 28.9023L110.911 30.1936C110.994 30.2485 111.049 30.331 111.049 30.4409V33.0234C111.049 33.1333 110.994 33.2157 110.911 33.2706L108.686 34.5619C108.604 34.6169 108.494 34.6169 108.411 34.5619L106.186 33.2706C106.103 33.2157 106.048 33.1333 106.048 33.0234V30.4409C106.048 30.331 106.103 30.2485 106.186 30.1936L108.411 28.9023Z" fill="#539E43"/>
<path d="M45.5788 17.1985C45.1393 16.9513 44.6173 16.9513 44.1777 17.1985L32.6113 23.8746C32.1717 24.1219 31.9244 24.589 31.9244 25.0835V38.4632C31.9244 38.9577 32.1992 39.4247 32.6113 39.672L44.1777 46.3481C44.6173 46.5954 45.1393 46.5954 45.5788 46.3481L57.1453 39.672C57.5849 39.4247 57.8321 38.9577 57.8321 38.4632V25.0835C57.8321 24.589 57.5574 24.1219 57.1453 23.8746L45.5788 17.1985Z" fill="url(#paint0_linear_316_48)"/>
<mask id="mask0_316_48" style="mask-type:luminance" maskUnits="userSpaceOnUse" x="31" y="17" width="27" height="30">
<path d="M45.5788 17.1985C45.1393 16.9513 44.6173 16.9513 44.1777 17.1985L32.6113 23.8746C32.1717 24.1219 31.9244 24.589 31.9244 25.0835V38.4632C31.9244 38.9577 32.1992 39.4247 32.6113 39.672L44.1777 46.3481C44.6173 46.5954 45.1393 46.5954 45.5788 46.3481L57.1453 39.672C57.5849 39.4247 57.8321 38.9577 57.8321 38.4632V25.0835C57.8321 24.589 57.5574 24.1219 57.1453 23.8746L45.5788 17.1985Z" fill="white"/>
</mask>
<g mask="url(#mask0_316_48)">
<path d="M57.1728 23.8746L45.5514 17.1985C45.4415 17.1436 45.3041 17.0886 45.1942 17.0612L32.1717 39.3698C32.2816 39.5072 32.419 39.6171 32.5563 39.6995L44.1777 46.3756C44.5074 46.5679 44.892 46.6229 45.2492 46.513L57.475 24.1494C57.3925 24.0395 57.2826 23.9571 57.1728 23.8746Z" fill="url(#paint1_linear_316_48)"/>
</g>
<mask id="mask1_316_48" style="mask-type:luminance" maskUnits="userSpaceOnUse" x="31" y="17" width="27" height="30">
<path d="M45.5788 17.1985C45.1393 16.9513 44.6173 16.9513 44.1777 17.1985L32.6113 23.8746C32.1717 24.1219 31.9244 24.589 31.9244 25.0835V38.4632C31.9244 38.9577 32.1992 39.4247 32.6113 39.672L44.1777 46.3481C44.6173 46.5954 45.1393 46.5954 45.5788 46.3481L57.1453 39.672C57.5849 39.4247 57.8321 38.9577 57.8321 38.4632V25.0835C57.8321 24.589 57.5574 24.1219 57.1453 23.8746L45.5788 17.1985Z" fill="white"/>
</mask>
<g mask="url(#mask1_316_48)">
<path fill-rule="evenodd" clip-rule="evenodd" d="M57.2002 39.672C57.5299 39.4797 57.7772 39.15 57.8871 38.7929L45.1393 17.0337C44.8096 16.9787 44.4524 17.0062 44.1502 17.1985L32.6113 23.8472L45.0568 46.5404C45.2217 46.513 45.414 46.458 45.5788 46.3756L57.2002 39.672Z" fill="url(#paint2_linear_316_48)"/>
<path fill-rule="evenodd" clip-rule="evenodd" d="M57.2002 39.672L45.6063 46.3481C45.4415 46.4305 45.2766 46.4855 45.0843 46.513L45.3041 46.9251L58.1618 39.4797V39.3149L57.8321 38.7654C57.7772 39.15 57.5299 39.4797 57.2002 39.672Z" fill="url(#paint3_linear_316_48)"/>
<path fill-rule="evenodd" clip-rule="evenodd" d="M57.2002 39.672L45.6063 46.3481C45.4415 46.4305 45.2766 46.4855 45.0843 46.513L45.3041 46.9251L58.1618 39.4797V39.3149L57.8321 38.7654C57.7772 39.15 57.5299 39.4797 57.2002 39.672Z" fill="url(#paint4_linear_316_48)"/>
</g>
<defs>
<linearGradient id="paint0_linear_316_48" x1="1798.53" y1="533.233" x2="530.69" y2="2525.3" gradientUnits="userSpaceOnUse">
<stop stop-color="#41873F"/>
<stop offset="0.3288" stop-color="#418B3D"/>
<stop offset="0.6352" stop-color="#419637"/>
<stop offset="0.9319" stop-color="#3FA92D"/>
<stop offset="1" stop-color="#3FAE2A"/>
</linearGradient>
<linearGradient id="paint1_linear_316_48" x1="1127.21" y1="1644.97" x2="4302.31" y2="-80.0543" gradientUnits="userSpaceOnUse">
<stop offset="0.1376" stop-color="#41873F"/>
<stop offset="0.4032" stop-color="#54A044"/>
<stop offset="0.7136" stop-color="#66B848"/>
<stop offset="0.9081" stop-color="#6CC04A"/>
</linearGradient>
<linearGradient id="paint2_linear_316_48" x1="-78.3192" y1="1493.51" x2="2598.09" y2="1493.51" gradientUnits="userSpaceOnUse">
<stop offset="0.0919165" stop-color="#6CC04A"/>
<stop offset="0.2864" stop-color="#66B848"/>
<stop offset="0.5968" stop-color="#54A044"/>
<stop offset="0.8624" stop-color="#41873F"/>
</linearGradient>
<linearGradient id="paint3_linear_316_48" x1="-1313.15" y1="448.997" x2="1363.25" y2="448.997" gradientUnits="userSpaceOnUse">
<stop offset="0.0919165" stop-color="#6CC04A"/>
<stop offset="0.2864" stop-color="#66B848"/>
<stop offset="0.5968" stop-color="#54A044"/>
<stop offset="0.8624" stop-color="#41873F"/>
</linearGradient>
<linearGradient id="paint4_linear_316_48" x1="1753.17" y1="-1683.49" x2="1075.14" y2="1869.41" gradientUnits="userSpaceOnUse">
<stop stop-color="#41873F"/>
<stop offset="0.3288" stop-color="#418B3D"/>
<stop offset="0.6352" stop-color="#419637"/>
<stop offset="0.9319" stop-color="#3FA92D"/>
<stop offset="1" stop-color="#3FAE2A"/>
</linearGradient>
</defs>
</svg>
