<svg width="201" height="201" viewBox="0 0 201 201" fill="none" xmlns="http://www.w3.org/2000/svg">
<path d="M0 72.5496C0 47.155 0 34.4576 4.94215 24.7581C9.28941 16.2261 16.2261 9.28941 24.7581 4.94215C34.4576 0 47.155 0 72.5496 0H127.917C153.312 0 166.009 0 175.708 4.94215C184.24 9.28941 191.177 16.2261 195.525 24.7581C200.467 34.4576 200.467 47.155 200.467 72.5496V127.917C200.467 153.312 200.467 166.009 195.525 175.708C191.177 184.24 184.24 191.177 175.708 195.525C166.009 200.467 153.312 200.467 127.917 200.467H72.5496C47.155 200.467 34.4576 200.467 24.7581 195.525C16.2261 191.177 9.28941 184.24 4.94215 175.708C0 166.009 0 153.312 0 127.917V72.5496Z" fill="#001E36"/>
<path d="M42.9572 146.886V58.7325C42.9572 58.1332 43.2077 57.7903 43.7925 57.7903C52.4242 57.7903 61.0521 57.2762 69.6858 57.2762C83.6963 57.2762 98.8659 62.0666 104.183 76.7229C105.436 80.3213 106.104 84.0049 106.104 87.8603C106.104 95.2281 104.434 101.31 101.093 106.108C91.7594 119.509 75.5831 119.301 61.0829 119.301V146.801C61.1961 147.615 60.5023 148 59.83 148H43.9595C43.2913 148 42.9572 147.657 42.9572 146.886ZM61.166 74.3245V103.109C66.9158 103.53 72.9319 103.576 78.4562 101.739C84.5554 99.9792 87.8954 94.7005 87.8954 88.3743C88.0643 82.9839 85.1275 77.8119 80.1273 75.8666C74.6696 73.5971 67.0576 73.461 61.166 74.3245Z" fill="#31A8FF"/>
<path d="M158.202 97.4226C155.675 96.0902 152.983 95.1158 150.2 94.5259C146.624 93.6846 132.521 90.7378 132.516 98.1121C132.641 102.229 139.176 104.246 142.064 105.422C152.201 108.902 163.672 115.123 163.446 127.629C163.756 143.196 148.673 149.42 135.743 149.422C129.013 149.491 122 148.449 115.84 145.559C115.252 145.248 114.874 144.582 114.899 143.904V129.008C114.832 128.41 115.474 127.889 115.975 128.318C122.01 131.968 129.164 133.741 136.147 133.835C139.229 133.835 145.338 133.537 145.292 129.008C145.292 124.662 137.984 122.664 135.071 121.56C130.848 120.052 126.845 117.964 123.17 115.353C118.033 111.689 114.812 105.816 114.899 99.3535C114.869 84.6951 128.753 78.1155 141.257 78.1127C147.102 78.064 153.38 78.4971 158.821 80.8712C159.604 81.101 159.766 81.9258 159.763 82.664V96.595C159.812 97.4599 158.852 97.7541 158.202 97.4226Z" fill="#31A8FF"/>
</svg>
