<svg width="122" height="126" viewBox="0 0 122 126" fill="none" xmlns="http://www.w3.org/2000/svg">
<path d="M121.222 75.0628C120.492 72.8506 118.578 71.3095 116.103 70.9395C114.936 70.7653 113.599 70.8396 112.018 71.1657C109.262 71.7344 107.217 71.9507 105.724 71.993C111.357 62.4816 115.938 51.6351 118.575 41.4252C122.839 24.9163 120.561 17.3954 117.898 13.9933C110.851 4.98926 100.57 0.151855 88.1662 0.00357036C81.55 -0.0771844 75.741 1.22924 72.7111 2.16847C69.8898 1.671 66.856 1.393 63.6728 1.34151C57.7068 1.24641 52.4349 2.54692 47.9304 5.21999C45.436 4.37699 41.434 3.18818 36.8118 2.42931C25.9406 0.644544 17.1791 2.03538 10.7705 6.56272C3.01017 12.0445 -0.5875 21.5685 0.0779534 34.8705C0.288985 39.094 2.6517 51.9435 6.37148 64.1302C8.50937 71.1345 10.7891 76.9513 13.1473 81.4202C16.4914 87.757 20.0697 91.4889 24.0869 92.8288C26.3387 93.5792 30.4297 94.1043 34.7327 90.5213C35.278 91.1814 36.0054 91.8378 36.9714 92.4473C38.1976 93.2208 39.6973 93.8527 41.1948 94.2273C46.5924 95.5767 51.6482 95.2391 55.9614 93.3479C55.9878 94.115 56.0084 94.848 56.0258 95.4808C56.0545 96.5075 56.0827 97.514 56.1204 98.4552C56.3759 104.82 56.8089 109.77 58.092 113.232C58.1623 113.423 58.2571 113.713 58.3573 114.021C58.9972 115.981 60.0678 119.262 62.7907 121.831C65.6109 124.493 69.0217 125.309 72.1456 125.309C73.7122 125.309 75.2072 125.104 76.5181 124.823C81.1921 123.821 86.4999 122.295 90.3396 116.828C93.9696 111.659 95.7344 103.875 96.0538 91.6085C96.0951 91.2618 96.1334 90.9307 96.1702 90.615C96.195 90.4019 96.2203 90.1842 96.2459 89.9669L97.1013 90.0421L97.3216 90.057C102.082 90.2739 107.902 89.2643 111.477 87.6039C114.302 86.293 123.353 81.5147 121.222 75.0628Z" fill="black"/>
<path d="M113.083 76.3177C98.9289 79.2372 97.9559 74.4451 97.9559 74.4451C112.9 52.2705 119.147 24.1231 113.756 17.2342C99.0484 -1.5575 73.589 7.32975 73.1641 7.56048L73.0274 7.58496C70.2311 7.00448 67.1016 6.65867 63.5844 6.60127C57.18 6.49631 52.3221 8.28023 48.6358 11.0757C48.6358 11.0757 3.21867 -7.63437 5.33095 34.6071C5.78031 43.5937 18.2112 102.604 33.0383 84.7798C38.4576 78.2623 43.6937 72.7515 43.6937 72.7515C46.2945 74.4792 49.4079 75.3605 52.6718 75.0439L52.9254 74.8287C52.8466 75.6379 52.8826 76.4294 53.0269 77.3664C49.2073 81.634 50.3297 82.3833 42.694 83.9551C34.9677 85.5474 39.5066 88.3822 42.47 89.1231C46.0626 90.0215 54.3742 91.2942 59.9901 83.4326L59.7662 84.3296C61.2628 85.5282 62.3137 92.1268 62.1376 98.1083C61.9614 104.09 61.8438 108.197 63.0231 111.404C64.2023 114.612 65.3776 121.829 75.4154 119.679C83.8029 117.881 88.1494 113.223 88.754 105.454C89.1831 99.9299 90.1542 100.746 90.2155 95.808L90.9943 93.4701C91.8925 85.9824 91.137 83.5668 96.3045 84.6903L97.5602 84.8006C101.364 84.9737 106.341 84.1889 109.263 82.831C115.554 79.9114 119.285 75.0369 113.082 76.3177H113.083Z" fill="#336791"/>
<path d="M51.2942 38.626C50.019 38.4485 48.8637 38.6128 48.2793 39.0551C47.9504 39.3041 47.8488 39.5926 47.8215 39.7912C47.748 40.3171 48.1166 40.8984 48.3429 41.1984C48.9833 42.0473 49.9191 42.6308 50.8454 42.7594C50.9796 42.778 51.113 42.787 51.2458 42.787C52.7906 42.787 54.1946 41.5844 54.3184 40.6967C54.4732 39.585 52.8592 38.8438 51.2942 38.626Z" fill="white"/>
<path d="M93.5484 38.6612C93.4268 37.7898 91.8756 37.5413 90.404 37.7459C88.9347 37.9507 87.5095 38.6139 87.6285 39.4873C87.7242 40.1666 88.9502 41.3261 90.402 41.3258C90.5244 41.3258 90.6483 41.3177 90.7729 41.3002C91.742 41.166 92.453 40.5506 92.7906 40.1958C93.3053 39.6556 93.6027 39.0529 93.5484 38.6612Z" fill="white"/>
<path d="M117.793 75.986C117.253 74.354 115.516 73.8287 112.63 74.4249C104.061 76.1933 100.992 74.9682 99.9843 74.2262C106.645 64.0793 112.124 51.8144 115.08 40.3706C116.481 34.9499 117.254 29.9158 117.317 25.8128C117.387 21.3085 116.62 17.9992 115.038 15.9775C108.659 7.82722 99.2983 3.45549 87.9665 3.33534C80.1763 3.24784 73.5944 5.24166 72.3183 5.80216C69.6312 5.1339 66.7018 4.72365 63.513 4.67131C57.6646 4.57677 52.6097 5.9769 48.4242 8.83061C46.6062 8.15418 41.9078 6.54134 36.1624 5.61589C26.2287 4.01627 18.3353 5.22816 12.7022 9.21891C5.98065 13.9809 2.87764 22.4931 3.47894 34.5185C3.68125 38.5647 5.98628 51.0108 9.62446 62.9304C14.4132 78.6185 19.6184 87.4998 25.0956 89.3265C25.7366 89.5404 26.476 89.6901 27.2909 89.6901C29.289 89.6901 31.7383 88.7894 34.287 85.7255C38.5203 80.6326 42.4728 76.365 43.9298 74.8143C46.0829 75.9702 48.4478 76.6154 50.8674 76.6801C50.8716 76.7434 50.8781 76.8067 50.8837 76.8698C50.3983 77.4455 50.0002 77.95 49.6608 78.3807C47.9847 80.5085 47.6358 80.9514 42.2401 82.0625C40.7055 82.3791 36.6286 83.2193 36.5693 86.0767C36.5043 89.1985 41.3875 90.5097 41.9441 90.6487C43.8831 91.1341 45.7508 91.3735 47.5322 91.3735C51.8648 91.3733 55.6772 89.9495 58.7242 87.1946C58.6302 98.3244 59.0945 109.292 60.4308 112.633C61.525 115.368 64.1989 122.054 72.645 122.053C73.8839 122.053 75.2483 121.909 76.7489 121.588C85.5632 119.698 89.3908 115.802 90.8717 107.213C91.664 102.623 93.0239 91.662 93.6632 85.7826C95.013 86.2035 96.7507 86.3963 98.6292 86.396C102.547 86.396 107.068 85.5637 109.903 84.2477C113.087 82.7688 118.835 79.1391 117.793 75.986ZM96.8017 36.2557C96.7724 37.9915 96.5335 39.5672 96.2803 41.2122C96.0079 42.9812 95.726 44.8101 95.655 47.0304C95.585 49.1911 95.8548 51.4376 96.1159 53.6098C96.6432 57.9976 97.1843 62.5151 95.0895 66.9727C94.7639 66.3944 94.4496 65.7636 94.1615 65.0649C93.9012 64.4338 93.336 63.42 92.5534 62.0168C89.5078 56.5553 82.3761 43.7656 86.0269 38.5467C87.1142 36.9929 89.8739 35.3961 96.8017 36.2557ZM88.4046 6.85029C98.5577 7.07454 106.589 10.8728 112.276 18.1391C116.637 23.7126 111.834 49.0729 97.9314 70.9513C97.7941 70.7769 97.6542 70.6007 97.5096 70.4201C97.4519 70.3477 97.3931 70.2743 97.3337 70.2C100.926 64.2667 100.224 58.3963 99.5985 53.1914C99.3416 51.0555 99.0991 49.0381 99.1607 47.1433C99.2246 45.1342 99.4902 43.412 99.7468 41.7462C100.063 39.6933 100.384 37.5695 100.295 35.0655C100.361 34.803 100.388 34.4926 100.353 34.1243C100.127 31.723 97.3861 24.5376 91.7985 18.033C88.7425 14.4758 84.2852 10.4947 78.1996 7.8095C80.8173 7.267 84.3969 6.76109 88.4046 6.85029ZM31.59 83.4829C28.7822 86.8589 26.843 86.212 26.2054 85.9996C22.0503 84.6135 17.2295 75.832 12.979 61.9065C9.30116 49.8571 7.15174 37.7408 6.98179 34.3432C6.44464 23.598 9.04933 16.1092 14.7238 12.085C23.9586 5.53598 39.1416 9.45582 45.2424 11.444C45.1546 11.5304 45.0634 11.6114 44.9765 11.6992C34.9654 21.8099 35.2029 39.0841 35.2274 40.1398C35.2265 40.5473 35.2606 41.1241 35.3076 41.9176C35.4798 44.8228 35.8003 50.2302 34.944 56.3541C34.148 62.0446 35.9021 67.6145 39.7558 71.6353C40.1548 72.0515 40.5713 72.4423 41.0015 72.8101C39.286 74.6472 35.558 78.7094 31.59 83.4829ZM42.2882 69.2085C39.1821 65.9679 37.7716 61.4599 38.4176 56.8398C39.322 50.3707 38.988 44.7367 38.8087 41.7099C38.7837 41.2864 38.7615 40.9153 38.7482 40.6224C40.2108 39.3258 46.9883 35.6941 51.8215 36.8016C54.0275 37.3069 55.3711 38.8086 55.9299 41.3922C58.8219 54.7669 56.3128 60.3415 54.2968 64.821C53.8812 65.7439 53.4887 66.6162 53.1533 67.5188L52.8936 68.2163C52.2357 69.9803 51.6237 71.6201 51.2444 73.1775C47.9428 73.1674 44.7306 71.7572 42.2882 69.2085ZM42.795 87.246C41.831 87.0052 40.9638 86.5868 40.4551 86.2398C40.8799 86.0398 41.6363 85.768 42.9478 85.4979C49.2953 84.1909 50.2754 83.2688 52.4161 80.5507C52.9071 79.9277 53.4633 79.2212 54.2338 78.3608C54.234 78.3602 54.2343 78.3599 54.2346 78.3596C55.3823 77.0749 55.9071 77.2927 56.859 77.6874C57.6305 78.0068 58.3818 78.9736 58.6865 80.0378C58.8306 80.5403 58.9927 81.4944 58.4628 82.2364C53.9909 88.4976 47.4748 88.4171 42.795 87.246ZM76.0136 118.158C68.2485 119.822 65.4992 115.86 63.6874 111.331C62.518 108.406 61.9434 95.2202 62.3512 80.6588C62.3565 80.4649 62.3289 80.2778 62.2755 80.1019C62.229 79.7623 62.1576 79.4187 62.0585 79.0729C61.4519 76.9542 59.9744 75.1818 58.2017 74.4471C57.4974 74.1553 56.2045 73.6199 54.651 74.0172C54.9825 72.6522 55.5571 71.1111 56.1797 69.442L56.4411 68.7397C56.7355 67.9482 57.1043 67.1283 57.4949 66.2605C59.6046 61.5733 62.4941 55.1538 59.3582 40.6508C58.1834 35.2189 54.261 32.5663 48.3147 33.1823C44.7497 33.5511 41.4886 34.9895 39.8619 35.8142C39.5122 35.9915 39.1923 36.1626 38.8934 36.3294C39.3473 30.8561 41.0628 20.6278 47.4793 14.1565C51.519 10.0822 56.8995 8.07005 63.455 8.17838C76.3715 8.38997 84.6544 15.0186 89.3289 20.5423C93.3568 25.3023 95.538 30.097 96.4086 32.6828C89.8624 32.0174 85.4102 33.3097 83.153 36.5363C78.243 43.5549 85.8393 57.178 89.4901 63.725C90.1595 64.9251 90.7375 65.962 90.9192 66.4026C92.108 69.2839 93.6472 71.2074 94.771 72.6117C95.1154 73.0419 95.4497 73.4592 95.7037 73.8236C93.7212 74.3953 90.1598 75.7158 90.4842 82.3172C90.2225 85.6298 88.361 101.138 87.4155 106.617C86.1673 113.856 83.5036 116.552 76.0136 118.158ZM108.426 81.0665C106.399 82.0077 103.006 82.7136 99.7825 82.865C96.2226 83.0319 94.4105 82.4663 93.9842 82.1185C93.7839 78.0048 95.3154 77.5749 96.9359 77.1199C97.1905 77.0481 97.439 76.9786 97.6787 76.8948C97.8278 77.0161 97.991 77.1365 98.1697 77.2544C101.031 79.143 106.135 79.3467 113.339 77.8596C113.366 77.854 113.392 77.8489 113.418 77.8436C112.447 78.7522 110.784 79.9716 108.426 81.0665Z" fill="white"/>
</svg>
