<svg width="122" height="109" viewBox="0 0 122 109" fill="none" xmlns="http://www.w3.org/2000/svg">
<path d="M99.9332 35.05C98.6724 34.616 97.3659 34.2054 96.0206 33.817C96.2417 32.9146 96.4447 32.0239 96.6251 31.1484C99.5869 16.7715 97.6504 5.18946 91.0377 1.37615C84.6971 -2.28032 74.3274 1.53213 63.8545 10.6464C62.8474 11.5228 61.8375 12.4507 60.8281 13.4232C60.1554 12.7797 59.4839 12.158 58.8141 11.5632C47.8382 1.81771 36.8366 -2.28919 30.2305 1.53516C23.8958 5.20222 22.0199 16.0905 24.6859 29.7155C24.9434 31.0316 25.2443 32.3755 25.5846 33.7419C24.0276 34.1839 22.5244 34.6551 21.0862 35.1564C8.21812 39.6428 0 46.674 0 53.9673C0 61.4998 8.82216 69.055 22.2252 73.6361C23.2829 73.9977 24.3805 74.3395 25.5115 74.664C25.1444 76.1419 24.8251 77.5901 24.557 79.0026C22.0149 92.3912 24.0001 103.022 30.3179 106.666C36.8435 110.429 47.7954 106.561 58.4597 97.2393C59.3026 96.5024 60.1485 95.721 60.9959 94.9019C62.0943 95.9596 63.191 96.9606 64.2818 97.8996C74.6115 106.789 84.8137 110.378 91.1256 106.724C97.6447 102.95 99.7634 91.5297 97.0128 77.6351C96.8027 76.5739 96.5582 75.4898 96.2837 74.3864C97.0528 74.1591 97.8079 73.9243 98.5441 73.6803C112.478 69.0637 121.544 61.6004 121.544 53.9673C121.544 46.6476 113.06 39.569 99.9332 35.05ZM96.9111 68.7517C96.2465 68.9717 95.5646 69.1844 94.8697 69.3906C93.3314 64.5208 91.2554 59.3426 88.7148 53.9926C91.1392 48.77 93.135 43.6579 94.6302 38.8198C95.8735 39.1796 97.0803 39.5591 98.2431 39.9595C109.491 43.8315 116.351 49.5562 116.351 53.9673C116.351 58.6659 108.942 64.7653 96.9111 68.7517ZM91.9191 78.6435C93.1354 84.7875 93.3092 90.3424 92.5035 94.6849C91.7796 98.5869 90.3238 101.188 88.5238 102.23C84.6934 104.447 76.5021 101.566 67.668 93.9636C66.6553 93.0921 65.6353 92.1616 64.6119 91.1768C68.0367 87.4312 71.4595 83.0768 74.8001 78.2409C80.6759 77.7195 86.2271 76.8671 91.2612 75.7033C91.5092 76.7035 91.7294 77.6844 91.9191 78.6435ZM41.437 101.847C37.6946 103.169 34.714 103.207 32.9123 102.168C29.0784 99.9566 27.4846 91.4209 29.6587 79.971C29.9077 78.6597 30.2041 77.3127 30.5457 75.9359C35.5247 77.0369 41.0352 77.8291 46.925 78.3066C50.2881 83.0388 53.8098 87.3884 57.3587 91.1969C56.5833 91.9455 55.811 92.6581 55.043 93.3297C50.3273 97.4517 45.6016 100.376 41.437 101.847ZM23.9045 68.7229C17.9779 66.6973 13.0835 64.0646 9.72865 61.1917C6.71408 58.61 5.19209 56.047 5.19209 53.9673C5.19209 49.5415 11.7904 43.8964 22.7953 40.0595C24.1306 39.5939 25.5284 39.1551 26.979 38.743C28.4999 43.6904 30.4951 48.863 32.9028 54.0936C30.4639 59.4019 28.4404 64.6569 26.9046 69.6623C25.8704 69.365 24.8685 69.0522 23.9045 68.7229ZM29.7815 28.7184C27.4974 17.0448 29.0144 8.23864 32.8318 6.02888C36.898 3.67482 45.8896 7.03121 55.3664 15.446C55.9722 15.9838 56.5803 16.5468 57.1902 17.1292C53.6588 20.9211 50.1693 25.238 46.8361 29.9423C41.1198 30.4721 35.648 31.3232 30.6171 32.4629C30.3008 31.1906 30.0206 29.9405 29.7815 28.7184ZM82.21 41.6643C81.0073 39.587 79.7726 37.5587 78.5139 35.5859C82.3919 36.0761 86.1074 36.7269 89.5967 37.5232C88.5491 40.8805 87.2435 44.3907 85.7065 47.9892C84.604 45.896 83.4379 43.7856 82.21 41.6643ZM60.8298 20.8399C63.2247 23.4346 65.6231 26.3314 67.9822 29.4745C65.605 29.3622 63.1983 29.3038 60.7718 29.3038C58.3682 29.3038 55.9793 29.3609 53.6168 29.4713C55.9782 26.3574 58.3974 23.4644 60.8298 20.8399ZM39.3127 41.7002C38.1113 43.7834 36.9668 45.8824 35.8816 47.9853C34.3696 44.3994 33.0761 40.8731 32.0194 37.4683C35.4872 36.6923 39.1852 36.0577 43.0386 35.5768C41.7621 37.5678 40.5173 39.6114 39.3127 41.7002ZM43.1496 72.7281C39.1684 72.284 35.4148 71.6821 31.9478 70.9275C33.0213 67.4618 34.3434 63.8603 35.8875 60.1972C36.9755 62.2985 38.1245 64.3984 39.3332 66.4861C40.5644 68.613 41.8402 70.6964 43.1496 72.7281ZM60.9734 87.4607C58.5125 84.8054 56.0578 81.8683 53.6605 78.709C55.9877 78.8003 58.3604 78.8471 60.7718 78.8471C63.2492 78.8471 65.6982 78.7912 68.1087 78.6839C65.7419 81.9001 63.3522 84.8418 60.9734 87.4607ZM85.7561 60.0105C87.3806 63.7132 88.7501 67.2959 89.8375 70.7025C86.3134 71.5064 82.5085 72.154 78.4996 72.6351C79.7614 70.6356 81.0069 68.5726 82.2307 66.4504C83.4689 64.3034 84.6445 62.1531 85.7561 60.0105ZM77.7331 63.8564C75.8332 67.1507 73.8826 70.2955 71.9024 73.264C68.2957 73.5219 64.5695 73.6548 60.7718 73.6548C56.9894 73.6548 53.3102 73.5373 49.7674 73.3073C47.7073 70.2999 45.7143 67.1458 43.8265 63.8848C41.9436 60.6327 40.2111 57.3531 38.6409 54.0919C40.2107 50.8231 41.9391 47.5398 43.8111 44.2936L43.8107 44.2942C45.6877 41.0393 47.6632 37.9005 49.7042 34.9119C53.3189 34.6387 57.0256 34.4961 60.7716 34.4961C64.5345 34.4961 68.2461 34.6398 71.8598 34.9154C73.8696 37.8822 75.8316 41.0107 77.716 44.2661C79.6218 47.558 81.3725 50.8194 82.9557 54.0181C81.3772 57.2717 79.6305 60.566 77.7331 63.8564ZM88.4442 5.87441C92.5143 8.22155 94.0971 17.6876 91.5399 30.1004C91.3768 30.8924 91.1931 31.6992 90.9936 32.5168C85.951 31.3533 80.4753 30.4874 74.7423 29.9496C71.4026 25.1937 67.9417 20.87 64.4679 17.1268C65.4018 16.2283 66.3345 15.3716 67.2633 14.5631C76.2364 6.75407 84.6231 3.67093 88.4442 5.87441ZM60.7718 43.1138C66.7659 43.1138 71.6252 47.973 71.6252 53.9673C71.6252 59.9613 66.7659 64.8207 60.7718 64.8207C54.7777 64.8207 49.9184 59.9613 49.9184 53.9673C49.9184 47.973 54.7777 43.1138 60.7718 43.1138Z" fill="#00D8FF"/>
</svg>
