<svg width="122" height="73" viewBox="0 0 122 73" fill="none" xmlns="http://www.w3.org/2000/svg">
<path d="M60.7718 0C44.566 0 34.4374 8.10291 30.3859 24.3087C36.4631 16.2058 43.5531 13.1672 51.656 15.193C56.2792 16.3487 59.5836 19.7027 63.2412 23.4154C69.1995 29.4633 76.0955 36.4631 91.1577 36.4631C107.364 36.4631 117.492 28.3602 121.544 12.1544C115.466 20.2573 108.376 23.2959 100.273 21.2701C95.6503 20.1143 92.3459 16.7604 88.6883 13.0477C82.73 6.99979 75.834 0 60.7718 0ZM30.3859 36.4631C14.1801 36.4631 4.05145 44.566 0 60.7718C6.07718 52.6689 13.1672 49.6303 21.2701 51.656C25.8933 52.8118 29.1977 56.1658 32.8553 59.8785C38.8136 65.9264 45.7096 72.9262 60.7718 72.9262C76.9776 72.9262 87.1063 64.8233 91.1577 48.6174C85.0805 56.7204 77.9905 59.7589 69.8876 57.7332C65.2644 56.5774 61.96 53.2235 58.3024 49.5108C52.3441 43.4629 45.4481 36.4631 30.3859 36.4631Z" fill="url(#paint0_linear_316_77)"/>
<defs>
<linearGradient id="paint0_linear_316_77" x1="-864.31" y1="3593.8" x2="28917.3" y2="13923.5" gradientUnits="userSpaceOnUse">
<stop stop-color="#8017A5"/>
<stop offset="1" stop-color="#0ED7B5"/>
</linearGradient>
</defs>
</svg>
