<svg width="122" height="122" viewBox="0 0 122 122" fill="none" xmlns="http://www.w3.org/2000/svg">
<path d="M0 60.7718V121.544H60.7718H121.544V60.7718V7.62939e-06H60.7718H0V60.7718Z" fill="#007ACC"/>
<path d="M26.8778 61.175L26.8392 66.1525H34.7492H42.6592V88.6284V111.104H48.2541H53.8489V88.6284V66.1525H61.7589H69.6689V61.2714C69.6689 58.5704 69.611 56.3132 69.5339 56.2553C69.476 56.1782 59.8489 56.1396 48.1769 56.1589L26.9357 56.2167L26.8778 61.175Z" fill="white"/>
<path d="M98.0736 56.0754C101.16 56.8472 103.514 58.2169 105.675 60.4549C106.794 61.651 108.453 63.8311 108.588 64.352C108.627 64.5063 103.341 68.0562 100.138 70.0433C100.022 70.1205 99.5592 69.6189 99.0383 68.8472C97.4756 66.5706 95.8357 65.5867 93.3277 65.4131C89.6428 65.1623 87.2698 67.0915 87.2891 70.3134C87.2891 71.2588 87.4241 71.8182 87.81 72.5899C88.6203 74.2684 90.1251 75.2716 94.8518 77.3166C103.553 81.0594 107.276 83.5289 109.591 87.0401C112.177 90.9565 112.755 97.2074 111 101.857C109.07 106.912 104.286 110.346 97.5527 111.484C95.4691 111.85 90.5302 111.793 88.2923 111.387C83.4112 110.519 78.781 108.108 75.9257 104.944C74.8067 103.709 72.6267 100.487 72.7617 100.256C72.8196 100.178 73.3212 99.8697 73.8807 99.5418C74.4209 99.2331 76.4659 98.0562 78.3952 96.9373L81.8871 94.9115L82.6202 95.9919C83.6428 97.5546 85.8807 99.6961 87.2312 100.41C91.109 102.455 96.4338 102.166 99.0576 99.8119C100.177 98.7893 100.64 97.7282 100.64 96.1655C100.64 94.7572 100.466 94.1398 99.7328 93.0787C98.7875 91.7282 96.8582 90.59 91.3791 88.217C85.109 85.516 82.408 83.8376 79.9386 81.1752C78.5109 79.6318 77.1604 77.1623 76.6009 75.098C76.1379 73.3809 76.0222 69.0787 76.3887 67.3423C77.6813 61.2845 82.2537 57.0594 88.8518 55.8053C90.9933 55.4002 95.9708 55.5545 98.0736 56.0754Z" fill="white"/>
</svg>
